<?xml version="1.0" encoding="UTF-8" standalone="no"?>
<!-- Created with PhotoLine 25.00 (www.pl32.com) -->
<!DOCTYPE svg PUBLIC "-//W3C//DTD SVG 1.1//EN" "http://www.w3.org/Graphics/SVG/1.1/DTD/svg11.dtd">
<svg width="102" height="102" viewBox="0 0 102 102" version="1.1" xmlns="http://www.w3.org/2000/svg" xmlns:xlink="http://www.w3.org/1999/xlink">
  <g id="Circle/Ellipse" transform="matrix(1.886792 0 0 3.125 -50 -76.5625)">
    <path fill="#f2f3f3" fill-rule="evenodd" d="M26.5 40.5 C26.5 31.67 38.38 24.5 53 24.5 C67.62 24.5 79.5 31.67 79.5 40.5 C79.5 49.33 67.62 56.5 53 56.5 C38.38 56.5 26.5 49.33 26.5 40.5 Z"/>
  </g>
  <g id="Circle/Ellipse" transform="matrix(1.886792 0 0 3.125 -50 -76.5625)">
    <path fill="#f2f3f3" fill-rule="evenodd" d="M26.5 40.5 C26.5 31.67 38.38 24.5 53 24.5 C67.62 24.5 79.5 31.67 79.5 40.5 C79.5 49.33 67.62 56.5 53 56.5 C38.38 56.5 26.5 49.33 26.5 40.5 Z"/>
  </g>
  <g transform="matrix(1 0 0 1 18.375 14.875)">
    <path fill="#0c9a56" d="M7.78 13.27 C7.78 13.35 7.75 13.41 7.69 13.46 C7.64 13.51 7.54 13.54 7.42 13.56 C7.29 13.58 7.11 13.59 6.86 13.59 C6.6 13.59 6.41 13.58 6.29 13.56 C6.17 13.54 6.09 13.51 6.04 13.46 C5.99 13.41 5.96 13.35 5.96 13.27 L5.96 12.64 C5.64 12.99 5.28 13.25 4.87 13.43 C4.46 13.6 4 13.69 3.5 13.69 C3.08 13.69 2.7 13.63 2.36 13.52 C2.01 13.42 1.71 13.25 1.46 13.04 C1.2 12.82 1.01 12.56 0.87 12.24 C0.73 11.92 0.66 11.55 0.66 11.12 C0.66 10.66 0.75 10.27 0.92 9.93 C1.1 9.59 1.37 9.31 1.72 9.09 C2.07 8.87 2.51 8.7 3.04 8.6 C3.56 8.49 4.17 8.44 4.86 8.44 L5.62 8.44 L5.62 7.98 C5.62 7.74 5.6 7.53 5.55 7.36 C5.5 7.18 5.42 7.03 5.31 6.91 C5.2 6.79 5.05 6.7 4.86 6.65 C4.67 6.59 4.44 6.56 4.16 6.56 C3.8 6.56 3.47 6.6 3.18 6.68 C2.9 6.76 2.65 6.84 2.43 6.94 C2.21 7.03 2.02 7.12 1.87 7.2 C1.73 7.27 1.61 7.31 1.51 7.31 C1.45 7.31 1.39 7.29 1.35 7.25 C1.3 7.21 1.26 7.16 1.23 7.08 C1.19 7.01 1.17 6.92 1.15 6.81 C1.13 6.7 1.12 6.58 1.12 6.45 C1.12 6.27 1.14 6.13 1.17 6.03 C1.2 5.93 1.25 5.83 1.33 5.75 C1.41 5.67 1.56 5.57 1.76 5.47 C1.96 5.36 2.2 5.27 2.47 5.18 C2.74 5.09 3.04 5.02 3.36 4.96 C3.68 4.9 4.02 4.87 4.36 4.87 C4.97 4.87 5.49 4.94 5.92 5.06 C6.35 5.18 6.7 5.36 6.98 5.61 C7.26 5.86 7.46 6.18 7.59 6.58 C7.72 6.97 7.78 7.44 7.78 7.98 Z M5.62 9.84 L4.79 9.84 C4.43 9.84 4.13 9.87 3.88 9.92 C3.63 9.97 3.42 10.05 3.27 10.16 C3.11 10.26 2.99 10.39 2.92 10.54 C2.85 10.68 2.81 10.86 2.81 11.05 C2.81 11.37 2.92 11.63 3.12 11.81 C3.33 12 3.62 12.09 3.98 12.09 C4.29 12.09 4.58 12.02 4.83 11.86 C5.09 11.7 5.36 11.47 5.62 11.17 Z"/>
    <path fill="#0c9a56" d="M17.91 9.18 C17.91 9.87 17.83 10.5 17.68 11.05 C17.53 11.61 17.31 12.08 17.03 12.47 C16.74 12.86 16.39 13.16 15.97 13.37 C15.56 13.58 15.09 13.69 14.56 13.69 C14.3 13.69 14.05 13.66 13.83 13.61 C13.6 13.56 13.38 13.48 13.18 13.37 C12.97 13.26 12.77 13.12 12.56 12.95 C12.36 12.78 12.16 12.58 11.95 12.34 L11.95 13.23 C11.95 13.29 11.93 13.35 11.9 13.4 C11.87 13.44 11.81 13.48 11.74 13.51 C11.67 13.54 11.57 13.56 11.44 13.58 C11.32 13.59 11.16 13.59 10.99 13.59 C10.8 13.59 10.65 13.59 10.53 13.58 C10.4 13.56 10.31 13.54 10.23 13.51 C10.16 13.49 10.11 13.45 10.08 13.4 C10.05 13.36 10.03 13.31 10.03 13.24 L10.03 1.69 C10.03 1.63 10.05 1.58 10.08 1.53 C10.12 1.49 10.18 1.45 10.27 1.41 C10.35 1.38 10.47 1.36 10.61 1.34 C10.75 1.32 10.94 1.31 11.16 1.31 C11.38 1.31 11.56 1.32 11.7 1.34 C11.84 1.36 11.96 1.38 12.04 1.41 C12.13 1.44 12.19 1.48 12.23 1.53 C12.26 1.58 12.28 1.63 12.28 1.69 L12.28 5.99 C12.48 5.79 12.68 5.62 12.87 5.48 C13.07 5.34 13.27 5.22 13.47 5.13 C13.66 5.04 13.87 4.98 14.08 4.94 C14.28 4.9 14.5 4.87 14.74 4.87 C15.31 4.87 15.8 4.99 16.2 5.22 C16.6 5.45 16.93 5.76 17.18 6.15 C17.43 6.55 17.62 7 17.73 7.52 C17.85 8.05 17.91 8.6 17.91 9.18 Z M15.66 9.33 C15.66 9 15.63 8.67 15.58 8.36 C15.53 8.05 15.45 7.78 15.32 7.54 C15.2 7.3 15.04 7.11 14.85 6.96 C14.65 6.82 14.4 6.75 14.1 6.75 C13.96 6.75 13.82 6.77 13.67 6.81 C13.53 6.85 13.39 6.92 13.24 7.02 C13.09 7.12 12.94 7.25 12.78 7.41 C12.62 7.57 12.46 7.77 12.28 8 L12.28 10.6 C12.59 10.99 12.89 11.29 13.17 11.5 C13.45 11.71 13.75 11.81 14.06 11.81 C14.35 11.81 14.59 11.74 14.79 11.59 C14.99 11.45 15.15 11.26 15.28 11.02 C15.41 10.79 15.51 10.52 15.57 10.22 C15.63 9.93 15.66 9.63 15.66 9.33 Z"/>
    <path fill="#0c9a56" d="M27.56 9.18 C27.56 9.87 27.49 10.5 27.34 11.05 C27.18 11.61 26.97 12.08 26.68 12.47 C26.4 12.86 26.05 13.16 25.63 13.37 C25.22 13.58 24.74 13.69 24.21 13.69 C23.95 13.69 23.71 13.66 23.48 13.61 C23.25 13.56 23.04 13.48 22.83 13.37 C22.63 13.26 22.42 13.12 22.22 12.95 C22.02 12.78 21.82 12.58 21.61 12.34 L21.61 13.23 C21.61 13.29 21.59 13.35 21.56 13.4 C21.52 13.44 21.47 13.48 21.4 13.51 C21.32 13.54 21.22 13.56 21.1 13.58 C20.97 13.59 20.82 13.59 20.64 13.59 C20.46 13.59 20.3 13.59 20.18 13.58 C20.06 13.56 19.96 13.54 19.89 13.51 C19.81 13.49 19.76 13.45 19.73 13.4 C19.7 13.36 19.69 13.31 19.69 13.24 L19.69 1.69 C19.69 1.63 19.71 1.58 19.74 1.53 C19.78 1.49 19.84 1.45 19.92 1.41 C20.01 1.38 20.12 1.36 20.27 1.34 C20.41 1.32 20.59 1.31 20.81 1.31 C21.03 1.31 21.21 1.32 21.36 1.34 C21.5 1.36 21.61 1.38 21.7 1.41 C21.79 1.44 21.85 1.48 21.88 1.53 C21.92 1.58 21.94 1.63 21.94 1.69 L21.94 5.99 C22.13 5.79 22.33 5.62 22.53 5.48 C22.73 5.34 22.92 5.22 23.12 5.13 C23.32 5.04 23.52 4.98 23.73 4.94 C23.94 4.9 24.16 4.87 24.39 4.87 C24.97 4.87 25.46 4.99 25.86 5.22 C26.26 5.45 26.58 5.76 26.84 6.15 C27.09 6.55 27.27 7 27.39 7.52 C27.5 8.05 27.56 8.6 27.56 9.18 Z M25.31 9.33 C25.31 9 25.29 8.67 25.24 8.36 C25.19 8.05 25.1 7.78 24.98 7.54 C24.86 7.3 24.7 7.11 24.5 6.96 C24.31 6.82 24.06 6.75 23.76 6.75 C23.61 6.75 23.47 6.77 23.33 6.81 C23.19 6.85 23.05 6.92 22.9 7.02 C22.75 7.12 22.6 7.25 22.44 7.41 C22.28 7.57 22.11 7.77 21.94 8 L21.94 10.6 C22.25 10.99 22.54 11.29 22.83 11.5 C23.11 11.71 23.41 11.81 23.72 11.81 C24 11.81 24.25 11.74 24.44 11.59 C24.64 11.45 24.81 11.26 24.94 11.02 C25.07 10.79 25.17 10.52 25.22 10.22 C25.28 9.93 25.31 9.63 25.31 9.33 Z"/>
    <path fill="#0c9a56" d="M31.59 13.24 C31.59 13.3 31.58 13.35 31.54 13.39 C31.5 13.44 31.44 13.48 31.36 13.51 C31.27 13.53 31.16 13.56 31.01 13.57 C30.87 13.59 30.69 13.59 30.47 13.59 C30.25 13.59 30.07 13.59 29.92 13.57 C29.78 13.56 29.67 13.53 29.58 13.51 C29.49 13.48 29.43 13.44 29.4 13.39 C29.36 13.35 29.34 13.3 29.34 13.24 L29.34 5.34 C29.34 5.28 29.36 5.23 29.4 5.19 C29.43 5.14 29.49 5.1 29.58 5.07 C29.67 5.04 29.78 5.01 29.92 5 C30.07 4.98 30.25 4.97 30.47 4.97 C30.69 4.97 30.87 4.98 31.01 5 C31.16 5.01 31.27 5.04 31.36 5.07 C31.44 5.1 31.5 5.14 31.54 5.19 C31.58 5.23 31.59 5.28 31.59 5.34 Z M31.69 2.65 C31.69 3.1 31.6 3.41 31.42 3.59 C31.24 3.76 30.9 3.84 30.41 3.84 C29.92 3.84 29.59 3.76 29.41 3.6 C29.24 3.43 29.16 3.13 29.16 2.7 C29.16 2.25 29.24 1.94 29.42 1.76 C29.6 1.59 29.94 1.5 30.43 1.5 C30.92 1.5 31.25 1.58 31.43 1.75 C31.6 1.92 31.69 2.22 31.69 2.65 Z"/>
    <path fill="#0c9a56" d="M40.41 13.27 C40.41 13.35 40.38 13.41 40.32 13.46 C40.26 13.51 40.17 13.54 40.04 13.56 C39.92 13.58 39.73 13.59 39.49 13.59 C39.23 13.59 39.04 13.58 38.92 13.56 C38.8 13.54 38.71 13.51 38.66 13.46 C38.61 13.41 38.59 13.35 38.59 13.27 L38.59 12.64 C38.27 12.99 37.9 13.25 37.49 13.43 C37.08 13.6 36.62 13.69 36.12 13.69 C35.71 13.69 35.33 13.63 34.98 13.52 C34.64 13.42 34.34 13.25 34.08 13.04 C33.83 12.82 33.63 12.56 33.49 12.24 C33.35 11.92 33.28 11.55 33.28 11.12 C33.28 10.66 33.37 10.27 33.55 9.93 C33.73 9.59 33.99 9.31 34.34 9.09 C34.7 8.87 35.14 8.7 35.66 8.6 C36.19 8.49 36.79 8.44 37.49 8.44 L38.25 8.44 L38.25 7.98 C38.25 7.74 38.23 7.53 38.18 7.36 C38.13 7.18 38.05 7.03 37.93 6.91 C37.82 6.79 37.67 6.7 37.48 6.65 C37.3 6.59 37.06 6.56 36.79 6.56 C36.42 6.56 36.1 6.6 35.81 6.68 C35.52 6.76 35.27 6.84 35.05 6.94 C34.83 7.03 34.65 7.12 34.5 7.2 C34.35 7.27 34.23 7.31 34.14 7.31 C34.08 7.31 34.02 7.29 33.97 7.25 C33.92 7.21 33.88 7.16 33.85 7.08 C33.82 7.01 33.79 6.92 33.78 6.81 C33.76 6.7 33.75 6.58 33.75 6.45 C33.75 6.27 33.76 6.13 33.79 6.03 C33.82 5.93 33.88 5.83 33.96 5.75 C34.04 5.67 34.18 5.57 34.38 5.47 C34.59 5.36 34.82 5.27 35.1 5.18 C35.37 5.09 35.67 5.02 35.99 4.96 C36.31 4.9 36.64 4.87 36.98 4.87 C37.59 4.87 38.11 4.94 38.54 5.06 C38.97 5.18 39.33 5.36 39.61 5.61 C39.88 5.86 40.09 6.18 40.21 6.58 C40.34 6.97 40.41 7.44 40.41 7.98 Z M38.25 9.84 L37.41 9.84 C37.06 9.84 36.75 9.87 36.5 9.92 C36.25 9.97 36.05 10.05 35.89 10.16 C35.73 10.26 35.62 10.39 35.55 10.54 C35.47 10.68 35.44 10.86 35.44 11.05 C35.44 11.37 35.54 11.63 35.75 11.81 C35.95 12 36.24 12.09 36.61 12.09 C36.92 12.09 37.2 12.02 37.46 11.86 C37.72 11.7 37.98 11.47 38.25 11.17 Z"/>
    <path fill="#0c9a56" d="M55.12 13.24 C55.12 13.3 55.11 13.35 55.07 13.4 C55.04 13.44 54.98 13.48 54.89 13.51 C54.81 13.54 54.69 13.56 54.55 13.57 C54.41 13.59 54.22 13.59 54 13.59 C53.78 13.59 53.59 13.59 53.45 13.57 C53.31 13.56 53.19 13.54 53.1 13.51 C53.02 13.48 52.96 13.44 52.92 13.4 C52.89 13.35 52.87 13.3 52.87 13.24 L52.87 8.61 C52.87 8.34 52.85 8.1 52.8 7.89 C52.76 7.67 52.68 7.49 52.58 7.33 C52.48 7.18 52.36 7.06 52.21 6.97 C52.06 6.89 51.88 6.84 51.68 6.84 C51.42 6.84 51.17 6.95 50.91 7.15 C50.65 7.36 50.37 7.65 50.06 8.04 L50.06 13.24 C50.06 13.3 50.04 13.35 50.01 13.4 C49.97 13.44 49.91 13.48 49.83 13.51 C49.74 13.54 49.62 13.56 49.48 13.57 C49.34 13.59 49.16 13.59 48.94 13.59 C48.72 13.59 48.54 13.59 48.4 13.57 C48.25 13.56 48.14 13.54 48.05 13.51 C47.96 13.48 47.9 13.44 47.87 13.4 C47.83 13.35 47.81 13.3 47.81 13.24 L47.81 8.61 C47.81 8.34 47.79 8.1 47.74 7.89 C47.69 7.67 47.61 7.49 47.51 7.33 C47.42 7.18 47.29 7.06 47.13 6.97 C46.97 6.89 46.79 6.84 46.58 6.84 C46.31 6.84 46.04 6.95 45.77 7.15 C45.5 7.36 45.22 7.65 44.91 8.04 L44.91 13.24 C44.91 13.3 44.89 13.35 44.85 13.4 C44.82 13.44 44.76 13.48 44.67 13.51 C44.58 13.54 44.47 13.56 44.33 13.57 C44.18 13.59 44 13.59 43.78 13.59 C43.56 13.59 43.38 13.59 43.24 13.57 C43.09 13.56 42.98 13.53 42.89 13.51 C42.81 13.48 42.75 13.44 42.71 13.39 C42.67 13.35 42.66 13.3 42.66 13.24 L42.66 5.32 C42.66 5.26 42.67 5.21 42.7 5.17 C42.73 5.12 42.78 5.09 42.86 5.06 C42.94 5.03 43.04 5.01 43.16 4.99 C43.28 4.98 43.44 4.97 43.62 4.97 C43.81 4.97 43.97 4.98 44.09 4.99 C44.22 5.01 44.31 5.03 44.38 5.06 C44.45 5.09 44.5 5.12 44.53 5.17 C44.56 5.21 44.58 5.26 44.58 5.32 L44.58 6.24 C45.01 5.78 45.45 5.44 45.88 5.22 C46.31 4.99 46.77 4.87 47.24 4.87 C47.56 4.87 47.85 4.91 48.11 4.97 C48.37 5.04 48.6 5.13 48.81 5.25 C49.01 5.38 49.19 5.52 49.33 5.69 C49.48 5.86 49.6 6.05 49.7 6.26 C49.93 6.02 50.16 5.81 50.39 5.63 C50.61 5.46 50.83 5.31 51.05 5.2 C51.26 5.09 51.48 5.01 51.7 4.96 C51.92 4.9 52.14 4.87 52.36 4.87 C52.88 4.87 53.31 4.96 53.67 5.14 C54.02 5.32 54.3 5.56 54.52 5.86 C54.74 6.16 54.89 6.51 54.99 6.92 C55.08 7.33 55.12 7.75 55.12 8.21 Z"/>
    <path fill="#0c9a56" d="M65.25 9.2 C65.25 9.87 65.16 10.48 64.98 11.02 C64.81 11.57 64.54 12.05 64.18 12.44 C63.82 12.84 63.37 13.15 62.83 13.36 C62.29 13.58 61.66 13.69 60.93 13.69 C60.23 13.69 59.63 13.59 59.11 13.4 C58.59 13.21 58.16 12.92 57.82 12.56 C57.48 12.19 57.22 11.74 57.06 11.2 C56.89 10.66 56.81 10.05 56.81 9.36 C56.81 8.69 56.9 8.09 57.08 7.53 C57.26 6.98 57.53 6.51 57.89 6.11 C58.25 5.72 58.7 5.42 59.24 5.2 C59.77 4.98 60.4 4.87 61.13 4.87 C61.83 4.87 62.45 4.97 62.96 5.16 C63.48 5.35 63.91 5.63 64.25 6 C64.59 6.36 64.84 6.82 65 7.35 C65.17 7.89 65.25 8.51 65.25 9.2 Z M63 9.3 C63 8.92 62.97 8.57 62.91 8.25 C62.84 7.93 62.74 7.65 62.59 7.41 C62.44 7.17 62.24 6.99 61.99 6.86 C61.74 6.72 61.43 6.66 61.05 6.66 C60.71 6.66 60.42 6.72 60.17 6.83 C59.92 6.95 59.71 7.12 59.55 7.35 C59.39 7.58 59.27 7.86 59.18 8.18 C59.1 8.5 59.06 8.86 59.06 9.27 C59.06 9.65 59.1 10 59.16 10.32 C59.23 10.65 59.33 10.92 59.48 11.16 C59.63 11.4 59.83 11.58 60.08 11.71 C60.33 11.84 60.64 11.91 61.01 11.91 C61.36 11.91 61.65 11.85 61.9 11.73 C62.15 11.61 62.36 11.44 62.52 11.21 C62.68 10.99 62.8 10.71 62.88 10.39 C62.96 10.07 63 9.71 63 9.3 Z"/>
  </g>
  <path transform="matrix(0.586706 0 0 0.525761 28.083666 28.59557)" fill="#0c9a56" d="M19.32 65.45 C18.85 65.45 18.47 65.3 18.17 64.99 C17.86 64.69 17.71 64.3 17.71 63.84 L17.71 24.64 L6.09 33.6 C5.72 33.88 5.32 34 4.9 33.95 C4.48 33.9 4.13 33.69 3.85 33.32 L2.03 31.01 C1.75 30.59 1.65 30.17 1.71 29.75 C1.78 29.33 2.01 28.98 2.38 28.7 L17.64 16.94 C17.97 16.71 18.27 16.57 18.55 16.52 C18.83 16.47 19.13 16.45 19.46 16.45 L23.03 16.45 C23.5 16.45 23.88 16.6 24.18 16.9 C24.49 17.21 24.64 17.59 24.64 18.06 L24.64 63.84 C24.64 64.3 24.49 64.69 24.18 64.99 C23.88 65.3 23.5 65.45 23.03 65.45 Z M52.19 66.15 C48.97 66.15 46.25 65.65 44.03 64.64 C41.82 63.64 40.01 62.25 38.61 60.48 C37.21 58.71 36.2 56.68 35.57 54.39 C34.94 52.1 34.57 49.68 34.48 47.11 C34.43 45.85 34.4 44.52 34.37 43.12 C34.35 41.72 34.35 40.29 34.37 38.85 C34.4 37.4 34.43 36.03 34.48 34.72 C34.53 32.16 34.89 29.73 35.57 27.44 C36.24 25.16 37.28 23.14 38.68 21.39 C40.08 19.64 41.89 18.26 44.1 17.26 C46.32 16.25 49.02 15.75 52.19 15.75 C55.41 15.75 58.13 16.25 60.35 17.26 C62.56 18.26 64.37 19.64 65.77 21.39 C67.17 23.14 68.21 25.16 68.88 27.44 C69.56 29.73 69.92 32.16 69.97 34.72 C70.02 36.03 70.05 37.4 70.08 38.85 C70.1 40.29 70.1 41.72 70.08 43.12 C70.05 44.52 70.02 45.85 69.97 47.11 C69.92 49.68 69.56 52.1 68.88 54.39 C68.21 56.68 67.18 58.71 65.81 60.48 C64.43 62.25 62.63 63.64 60.41 64.64 C58.2 65.65 55.45 66.15 52.19 66.15 Z M52.19 60.13 C55.83 60.13 58.53 58.94 60.27 56.56 C62.02 54.18 62.92 50.91 62.97 46.76 C63.06 45.41 63.11 44.09 63.11 42.81 C63.11 41.52 63.11 40.24 63.11 38.95 C63.11 37.67 63.06 36.4 62.97 35.14 C62.92 31.08 62.02 27.82 60.27 25.37 C58.53 22.92 55.83 21.7 52.19 21.7 C48.6 21.7 45.92 22.92 44.18 25.37 C42.43 27.82 41.51 31.08 41.41 35.14 C41.41 36.4 41.4 37.67 41.38 38.95 C41.35 40.24 41.35 41.52 41.38 42.81 C41.4 44.09 41.41 45.41 41.41 46.76 C41.51 50.91 42.44 54.18 44.21 56.56 C45.98 58.94 48.64 60.13 52.19 60.13 Z"/>
  <g transform="matrix(1 0 0 1 25.625 65.125)">
    <path fill="#0c9a56" d="M11.24 19.16 C11.24 19.28 11.2 19.38 11.11 19.44 C11.03 19.51 10.9 19.56 10.72 19.59 C10.53 19.62 10.27 19.64 9.91 19.64 C9.54 19.64 9.26 19.62 9.09 19.59 C8.92 19.56 8.79 19.51 8.72 19.44 C8.65 19.38 8.62 19.28 8.62 19.17 L8.62 18.26 C8.15 18.76 7.62 19.14 7.03 19.39 C6.44 19.64 5.78 19.77 5.05 19.77 C4.45 19.77 3.91 19.69 3.4 19.53 C2.9 19.38 2.47 19.14 2.1 18.83 C1.74 18.52 1.45 18.14 1.25 17.68 C1.05 17.22 0.95 16.68 0.95 16.07 C0.95 15.4 1.08 14.83 1.33 14.34 C1.59 13.85 1.97 13.45 2.48 13.13 C2.99 12.81 3.63 12.57 4.39 12.42 C5.14 12.26 6.02 12.19 7.02 12.19 L8.12 12.19 L8.12 11.53 C8.12 11.18 8.09 10.88 8.02 10.62 C7.95 10.37 7.83 10.15 7.67 9.98 C7.51 9.81 7.29 9.68 7.02 9.6 C6.75 9.52 6.41 9.48 6.01 9.48 C5.48 9.48 5.01 9.54 4.6 9.65 C4.19 9.76 3.82 9.88 3.5 10.02 C3.19 10.16 2.92 10.28 2.71 10.39 C2.5 10.51 2.32 10.56 2.19 10.56 C2.1 10.56 2.01 10.53 1.94 10.48 C1.87 10.42 1.82 10.34 1.77 10.23 C1.72 10.12 1.69 9.99 1.66 9.83 C1.64 9.68 1.62 9.5 1.62 9.31 C1.62 9.06 1.65 8.85 1.69 8.71 C1.73 8.56 1.81 8.42 1.93 8.3 C2.04 8.18 2.25 8.05 2.54 7.9 C2.83 7.75 3.18 7.61 3.57 7.48 C3.96 7.35 4.39 7.25 4.86 7.16 C5.32 7.08 5.8 7.04 6.29 7.04 C7.17 7.04 7.92 7.13 8.55 7.3 C9.17 7.48 9.68 7.74 10.09 8.1 C10.49 8.47 10.78 8.93 10.96 9.5 C11.15 10.07 11.24 10.74 11.24 11.52 Z M8.12 14.22 L6.91 14.22 C6.4 14.22 5.96 14.26 5.6 14.33 C5.24 14.41 4.95 14.52 4.72 14.67 C4.49 14.82 4.33 15.01 4.22 15.22 C4.11 15.43 4.06 15.68 4.06 15.96 C4.06 16.43 4.21 16.8 4.51 17.07 C4.81 17.33 5.22 17.47 5.75 17.47 C6.2 17.47 6.61 17.36 6.98 17.13 C7.36 16.9 7.74 16.57 8.12 16.13 Z"/>
    <path fill="#0c9a56" d="M25.32 19.13 C25.32 19.21 25.3 19.28 25.25 19.35 C25.19 19.41 25.11 19.47 24.99 19.51 C24.87 19.55 24.7 19.58 24.49 19.6 C24.28 19.62 24.01 19.64 23.7 19.64 C23.39 19.64 23.12 19.62 22.91 19.6 C22.7 19.58 22.53 19.55 22.41 19.51 C22.29 19.47 22.2 19.41 22.15 19.35 C22.1 19.29 22.07 19.21 22.07 19.13 L22.07 12.68 C22.07 12.14 22.03 11.71 21.96 11.39 C21.88 11.08 21.76 10.81 21.61 10.59 C21.46 10.37 21.27 10.19 21.04 10.07 C20.8 9.95 20.53 9.89 20.21 9.89 C19.81 9.89 19.41 10.03 19.01 10.33 C18.6 10.62 18.18 11.05 17.74 11.62 L17.74 19.13 C17.74 19.21 17.71 19.29 17.66 19.35 C17.61 19.41 17.52 19.47 17.4 19.51 C17.27 19.55 17.11 19.58 16.9 19.6 C16.7 19.62 16.43 19.64 16.11 19.64 C15.8 19.64 15.53 19.62 15.33 19.6 C15.12 19.58 14.96 19.55 14.83 19.51 C14.71 19.46 14.62 19.41 14.57 19.35 C14.52 19.28 14.49 19.21 14.49 19.12 L14.49 7.69 C14.49 7.6 14.51 7.53 14.55 7.47 C14.6 7.4 14.67 7.35 14.79 7.3 C14.9 7.26 15.04 7.23 15.22 7.21 C15.39 7.19 15.62 7.18 15.88 7.18 C16.16 7.18 16.38 7.19 16.57 7.21 C16.75 7.23 16.89 7.26 16.98 7.3 C17.08 7.35 17.15 7.4 17.2 7.47 C17.24 7.53 17.26 7.6 17.26 7.69 L17.26 9.01 C17.89 8.35 18.52 7.86 19.17 7.53 C19.81 7.21 20.48 7.04 21.18 7.04 C21.95 7.04 22.6 7.17 23.13 7.42 C23.65 7.68 24.08 8.02 24.41 8.46 C24.73 8.9 24.96 9.41 25.11 10 C25.25 10.58 25.32 11.29 25.32 12.11 Z"/>
    <path fill="#0c9a56" d="M39.27 19.13 C39.27 19.21 39.24 19.28 39.19 19.35 C39.14 19.41 39.06 19.47 38.93 19.51 C38.81 19.55 38.65 19.58 38.43 19.6 C38.22 19.62 37.96 19.64 37.65 19.64 C37.33 19.64 37.07 19.62 36.86 19.6 C36.64 19.58 36.48 19.55 36.36 19.51 C36.24 19.47 36.15 19.41 36.1 19.35 C36.05 19.29 36.02 19.21 36.02 19.13 L36.02 12.68 C36.02 12.14 35.98 11.71 35.9 11.39 C35.83 11.08 35.71 10.81 35.56 10.59 C35.41 10.37 35.22 10.19 34.98 10.07 C34.75 9.95 34.47 9.89 34.16 9.89 C33.76 9.89 33.36 10.03 32.95 10.33 C32.55 10.62 32.13 11.05 31.69 11.62 L31.69 19.13 C31.69 19.21 31.66 19.29 31.61 19.35 C31.56 19.41 31.47 19.47 31.35 19.51 C31.22 19.55 31.06 19.58 30.85 19.6 C30.64 19.62 30.38 19.64 30.06 19.64 C29.74 19.64 29.48 19.62 29.28 19.6 C29.07 19.58 28.9 19.55 28.78 19.51 C28.65 19.46 28.57 19.41 28.51 19.35 C28.46 19.28 28.44 19.21 28.44 19.12 L28.44 7.69 C28.44 7.6 28.46 7.53 28.5 7.47 C28.54 7.4 28.62 7.35 28.73 7.3 C28.85 7.26 28.99 7.23 29.17 7.21 C29.34 7.19 29.56 7.18 29.83 7.18 C30.1 7.18 30.33 7.19 30.51 7.21 C30.69 7.23 30.83 7.26 30.93 7.3 C31.03 7.35 31.1 7.4 31.14 7.47 C31.19 7.53 31.21 7.6 31.21 7.69 L31.21 9.01 C31.83 8.35 32.47 7.86 33.11 7.53 C33.76 7.21 34.43 7.04 35.13 7.04 C35.9 7.04 36.55 7.17 37.07 7.42 C37.6 7.68 38.03 8.02 38.35 8.46 C38.68 8.9 38.91 9.41 39.06 10 C39.2 10.58 39.27 11.29 39.27 12.11 Z"/>
    <path fill="#0c9a56" d="M45.64 19.12 C45.64 19.21 45.61 19.28 45.56 19.35 C45.51 19.41 45.42 19.46 45.29 19.51 C45.17 19.55 45 19.58 44.8 19.6 C44.59 19.62 44.33 19.64 44.01 19.64 C43.69 19.64 43.43 19.62 43.22 19.6 C43.02 19.58 42.85 19.55 42.73 19.51 C42.6 19.46 42.51 19.41 42.46 19.35 C42.41 19.28 42.39 19.21 42.39 19.12 L42.39 7.71 C42.39 7.63 42.41 7.56 42.46 7.49 C42.51 7.43 42.6 7.37 42.73 7.32 C42.85 7.28 43.02 7.24 43.22 7.22 C43.43 7.19 43.69 7.18 44.01 7.18 C44.33 7.18 44.59 7.19 44.8 7.22 C45 7.24 45.17 7.28 45.29 7.32 C45.42 7.37 45.51 7.43 45.56 7.49 C45.61 7.56 45.64 7.63 45.64 7.71 Z M45.77 3.83 C45.77 4.48 45.64 4.93 45.38 5.18 C45.12 5.43 44.64 5.55 43.93 5.55 C43.22 5.55 42.74 5.43 42.49 5.19 C42.24 4.95 42.11 4.52 42.11 3.9 C42.11 3.25 42.24 2.8 42.5 2.55 C42.75 2.29 43.24 2.17 43.96 2.17 C44.66 2.17 45.14 2.29 45.39 2.53 C45.64 2.77 45.77 3.21 45.77 3.83 Z"/>
  </g>
</svg>
