<?xml version="1.0" encoding="UTF-8" standalone="no"?>
<!-- Created with PhotoLine 25.00 (www.pl32.com) -->
<!DOCTYPE svg PUBLIC "-//W3C//DTD SVG 1.1//EN" "http://www.w3.org/Graphics/SVG/1.1/DTD/svg11.dtd">
<svg width="194" height="194" viewBox="0 0 194 194" version="1.1" xmlns="http://www.w3.org/2000/svg" xmlns:xlink="http://www.w3.org/1999/xlink">
  <g transform="matrix(1.9275 0 0 1.9275 0 0)">
    <g id="Circle/Ellipse" transform="matrix(1.886792 0 0 3.125 -50 -76.5625)">
      <path fill="#f2f3f3" fill-rule="evenodd" d="M26.5 40.5 C26.5 31.67 38.38 24.5 53 24.5 C67.62 24.5 79.5 31.67 79.5 40.5 C79.5 49.33 67.62 56.5 53 56.5 C38.38 56.5 26.5 49.33 26.5 40.5 Z"/>
    </g>
    <g transform="matrix(1 0 0 1 17.375 14.875)">
      <path fill="#0c9a56" d="M14.56 5.9 C14.56 5.97 14.55 6.06 14.53 6.16 C14.51 6.27 14.48 6.42 14.43 6.61 L12.11 14.57 C12.07 14.68 12.03 14.77 11.98 14.84 C11.93 14.91 11.85 14.97 11.74 15.01 C11.63 15.05 11.47 15.07 11.27 15.08 C11.07 15.1 10.81 15.1 10.49 15.1 C10.17 15.1 9.91 15.1 9.7 15.08 C9.5 15.06 9.34 15.04 9.23 15 C9.11 14.96 9.03 14.9 8.97 14.83 C8.92 14.76 8.88 14.68 8.86 14.57 L7.36 9.23 L7.34 9.14 L7.32 9.23 L5.96 14.57 C5.94 14.68 5.9 14.77 5.85 14.84 C5.8 14.91 5.72 14.97 5.6 15.01 C5.49 15.05 5.33 15.07 5.13 15.08 C4.93 15.1 4.67 15.1 4.35 15.1 C4.03 15.1 3.76 15.1 3.57 15.08 C3.37 15.06 3.21 15.04 3.1 15 C2.99 14.96 2.9 14.9 2.85 14.83 C2.8 14.76 2.76 14.68 2.74 14.57 L0.47 6.61 C0.41 6.42 0.37 6.28 0.36 6.17 C0.34 6.06 0.33 5.97 0.33 5.9 C0.33 5.83 0.35 5.77 0.39 5.72 C0.42 5.67 0.49 5.63 0.58 5.6 C0.68 5.57 0.8 5.55 0.96 5.54 C1.12 5.53 1.33 5.52 1.57 5.52 C1.83 5.52 2.04 5.53 2.21 5.54 C2.37 5.55 2.5 5.58 2.59 5.61 C2.68 5.64 2.75 5.69 2.78 5.74 C2.82 5.8 2.84 5.87 2.86 5.94 L4.51 12.4 L4.53 12.52 L4.55 12.4 L6.19 5.94 C6.21 5.87 6.24 5.8 6.28 5.74 C6.33 5.69 6.39 5.64 6.48 5.61 C6.56 5.58 6.68 5.55 6.84 5.54 C6.99 5.53 7.19 5.52 7.44 5.52 C7.68 5.52 7.88 5.53 8.03 5.55 C8.18 5.56 8.3 5.58 8.39 5.61 C8.48 5.64 8.55 5.68 8.58 5.73 C8.62 5.78 8.65 5.84 8.67 5.9 L10.44 12.41 L10.47 12.52 L10.49 12.4 L12.14 5.94 C12.15 5.87 12.17 5.8 12.21 5.74 C12.25 5.69 12.32 5.64 12.41 5.61 C12.5 5.58 12.63 5.55 12.78 5.54 C12.94 5.53 13.14 5.52 13.38 5.52 C13.62 5.52 13.82 5.53 13.97 5.54 C14.13 5.55 14.25 5.57 14.33 5.6 C14.42 5.63 14.48 5.67 14.51 5.72 C14.55 5.77 14.56 5.83 14.56 5.9 Z"/>
      <path fill="#0c9a56" d="M18.65 14.71 C18.65 14.78 18.63 14.83 18.59 14.88 C18.55 14.93 18.48 14.97 18.38 15.01 C18.29 15.04 18.16 15.06 18 15.08 C17.84 15.1 17.64 15.1 17.4 15.1 C17.15 15.1 16.95 15.1 16.79 15.08 C16.63 15.06 16.5 15.04 16.41 15.01 C16.31 14.97 16.24 14.93 16.21 14.88 C16.17 14.83 16.15 14.78 16.15 14.71 L16.15 5.93 C16.15 5.87 16.17 5.81 16.21 5.76 C16.24 5.71 16.31 5.67 16.41 5.63 C16.5 5.6 16.63 5.57 16.79 5.55 C16.95 5.53 17.15 5.52 17.4 5.52 C17.64 5.52 17.84 5.53 18 5.55 C18.16 5.57 18.29 5.6 18.38 5.63 C18.48 5.67 18.55 5.71 18.59 5.76 C18.63 5.81 18.65 5.87 18.65 5.93 Z M18.75 2.95 C18.75 3.45 18.65 3.79 18.45 3.98 C18.25 4.18 17.88 4.27 17.33 4.27 C16.78 4.27 16.41 4.18 16.22 3.99 C16.03 3.81 15.94 3.48 15.94 3 C15.94 2.5 16.04 2.15 16.23 1.96 C16.43 1.76 16.8 1.67 17.35 1.67 C17.9 1.67 18.26 1.76 18.46 1.95 C18.65 2.13 18.75 2.47 18.75 2.95 Z"/>
      <path fill="#0c9a56" d="M26.67 6.78 C26.67 7.01 26.66 7.2 26.65 7.35 C26.63 7.5 26.61 7.61 26.59 7.7 C26.56 7.78 26.53 7.84 26.49 7.87 C26.44 7.91 26.39 7.92 26.33 7.92 C26.27 7.92 26.22 7.91 26.15 7.89 C26.09 7.87 26.01 7.84 25.93 7.82 C25.85 7.79 25.76 7.77 25.66 7.74 C25.57 7.72 25.46 7.71 25.34 7.71 C25.21 7.71 25.07 7.74 24.93 7.79 C24.8 7.85 24.66 7.93 24.51 8.05 C24.36 8.16 24.21 8.32 24.05 8.51 C23.89 8.71 23.72 8.94 23.54 9.23 L23.54 14.71 C23.54 14.78 23.52 14.83 23.48 14.88 C23.44 14.93 23.37 14.97 23.28 15.01 C23.18 15.04 23.06 15.06 22.9 15.08 C22.74 15.1 22.54 15.1 22.29 15.1 C22.05 15.1 21.84 15.1 21.69 15.08 C21.53 15.06 21.4 15.04 21.3 15.01 C21.21 14.97 21.14 14.93 21.1 14.88 C21.06 14.83 21.04 14.78 21.04 14.71 L21.04 5.91 C21.04 5.85 21.06 5.79 21.09 5.74 C21.12 5.69 21.18 5.65 21.27 5.62 C21.36 5.59 21.47 5.56 21.6 5.55 C21.74 5.53 21.91 5.52 22.11 5.52 C22.32 5.52 22.5 5.53 22.64 5.55 C22.78 5.56 22.88 5.59 22.96 5.62 C23.04 5.65 23.09 5.69 23.12 5.74 C23.16 5.79 23.17 5.85 23.17 5.91 L23.17 7.01 C23.4 6.69 23.62 6.43 23.82 6.23 C24.02 6.02 24.21 5.86 24.39 5.74 C24.58 5.62 24.76 5.53 24.94 5.49 C25.12 5.44 25.3 5.42 25.49 5.42 C25.57 5.42 25.66 5.42 25.76 5.43 C25.86 5.44 25.96 5.46 26.06 5.48 C26.17 5.5 26.26 5.53 26.33 5.56 C26.41 5.59 26.47 5.62 26.51 5.65 C26.54 5.68 26.57 5.72 26.58 5.76 C26.6 5.8 26.61 5.85 26.63 5.92 C26.64 5.98 26.65 6.09 26.66 6.22 C26.66 6.36 26.67 6.54 26.67 6.78 Z"/>
      <path fill="#0c9a56" d="M38.75 12.2 C38.75 12.69 38.66 13.13 38.47 13.5 C38.28 13.88 38.02 14.2 37.68 14.45 C37.34 14.7 36.94 14.89 36.48 15.02 C36.02 15.15 35.51 15.21 34.97 15.21 C34.65 15.21 34.33 15.18 34.04 15.13 C33.74 15.08 33.47 15.02 33.24 14.94 C33 14.87 32.81 14.79 32.65 14.71 C32.49 14.63 32.38 14.55 32.31 14.48 C32.24 14.41 32.18 14.3 32.14 14.16 C32.1 14.01 32.08 13.79 32.08 13.5 C32.08 13.32 32.09 13.16 32.1 13.05 C32.12 12.93 32.14 12.84 32.16 12.77 C32.19 12.71 32.22 12.66 32.26 12.64 C32.3 12.62 32.35 12.6 32.41 12.6 C32.48 12.6 32.58 12.65 32.73 12.73 C32.87 12.82 33.04 12.91 33.25 13.02 C33.46 13.12 33.7 13.21 33.98 13.3 C34.26 13.39 34.57 13.44 34.92 13.44 C35.15 13.44 35.34 13.41 35.52 13.37 C35.69 13.32 35.84 13.26 35.97 13.17 C36.1 13.09 36.19 12.98 36.26 12.85 C36.32 12.72 36.35 12.57 36.35 12.4 C36.35 12.2 36.29 12.03 36.17 11.89 C36.05 11.75 35.89 11.63 35.69 11.53 C35.48 11.43 35.26 11.33 35 11.24 C34.75 11.15 34.49 11.05 34.22 10.94 C33.95 10.83 33.69 10.7 33.44 10.56 C33.18 10.41 32.95 10.24 32.75 10.03 C32.55 9.82 32.39 9.57 32.27 9.28 C32.14 8.99 32.08 8.64 32.08 8.23 C32.08 7.81 32.17 7.43 32.33 7.09 C32.49 6.74 32.73 6.44 33.04 6.2 C33.34 5.95 33.72 5.76 34.16 5.62 C34.6 5.48 35.1 5.42 35.65 5.42 C35.92 5.42 36.19 5.44 36.45 5.47 C36.71 5.51 36.94 5.56 37.15 5.62 C37.36 5.67 37.54 5.73 37.68 5.8 C37.82 5.87 37.93 5.92 37.99 5.97 C38.05 6.02 38.1 6.07 38.12 6.12 C38.15 6.17 38.17 6.23 38.18 6.3 C38.19 6.36 38.2 6.45 38.21 6.55 C38.22 6.66 38.23 6.78 38.23 6.94 C38.23 7.12 38.22 7.26 38.21 7.37 C38.2 7.49 38.19 7.58 38.16 7.64 C38.14 7.71 38.11 7.75 38.07 7.78 C38.03 7.8 37.98 7.81 37.93 7.81 C37.87 7.81 37.78 7.78 37.65 7.71 C37.53 7.65 37.37 7.58 37.18 7.5 C37 7.42 36.78 7.35 36.53 7.29 C36.28 7.22 36 7.19 35.68 7.19 C35.46 7.19 35.26 7.21 35.1 7.25 C34.93 7.3 34.8 7.36 34.69 7.44 C34.59 7.52 34.51 7.61 34.45 7.72 C34.4 7.83 34.37 7.95 34.37 8.07 C34.37 8.28 34.44 8.44 34.56 8.58 C34.69 8.72 34.86 8.84 35.06 8.94 C35.27 9.04 35.5 9.14 35.76 9.23 C36.03 9.32 36.29 9.42 36.56 9.53 C36.83 9.64 37.1 9.76 37.36 9.9 C37.62 10.05 37.86 10.22 38.06 10.43 C38.27 10.64 38.43 10.89 38.56 11.17 C38.69 11.46 38.75 11.81 38.75 12.2 Z"/>
      <path fill="#0c9a56" d="M43.12 14.71 C43.12 14.78 43.11 14.83 43.07 14.88 C43.03 14.93 42.96 14.97 42.86 15.01 C42.77 15.04 42.64 15.06 42.48 15.08 C42.32 15.1 42.12 15.1 41.87 15.1 C41.63 15.1 41.43 15.1 41.27 15.08 C41.11 15.06 40.98 15.04 40.89 15.01 C40.79 14.97 40.72 14.93 40.68 14.88 C40.64 14.83 40.62 14.78 40.62 14.71 L40.62 5.93 C40.62 5.87 40.64 5.81 40.68 5.76 C40.72 5.71 40.79 5.67 40.89 5.63 C40.98 5.6 41.11 5.57 41.27 5.55 C41.43 5.53 41.63 5.52 41.87 5.52 C42.12 5.52 42.32 5.53 42.48 5.55 C42.64 5.57 42.77 5.6 42.86 5.63 C42.96 5.67 43.03 5.71 43.07 5.76 C43.11 5.81 43.12 5.87 43.12 5.93 Z M43.23 2.95 C43.23 3.45 43.13 3.79 42.93 3.98 C42.73 4.18 42.36 4.27 41.81 4.27 C41.26 4.27 40.89 4.18 40.7 3.99 C40.51 3.81 40.42 3.48 40.42 3 C40.42 2.5 40.52 2.15 40.71 1.96 C40.91 1.76 41.28 1.67 41.83 1.67 C42.38 1.67 42.74 1.76 42.94 1.95 C43.13 2.13 43.23 2.47 43.23 2.95 Z"/>
      <path fill="#0c9a56" d="M53.85 14.71 C53.85 14.78 53.83 14.83 53.79 14.88 C53.76 14.93 53.69 14.97 53.6 15.01 C53.5 15.04 53.37 15.06 53.21 15.08 C53.05 15.1 52.85 15.1 52.61 15.1 C52.36 15.1 52.16 15.1 52 15.08 C51.83 15.06 51.71 15.04 51.61 15.01 C51.52 14.97 51.45 14.93 51.41 14.88 C51.37 14.84 51.35 14.78 51.35 14.72 L51.35 9.76 C51.35 9.34 51.32 9 51.26 8.76 C51.2 8.52 51.12 8.32 51 8.15 C50.89 7.97 50.74 7.84 50.56 7.75 C50.38 7.65 50.16 7.6 49.92 7.6 C49.62 7.6 49.31 7.72 48.99 7.95 C48.68 8.17 48.36 8.5 48.02 8.94 L48.02 14.72 C48.02 14.78 48 14.84 47.96 14.88 C47.92 14.93 47.85 14.97 47.76 15.01 C47.66 15.04 47.53 15.06 47.38 15.08 C47.22 15.1 47.02 15.1 46.77 15.1 C46.53 15.1 46.32 15.1 46.17 15.08 C46.01 15.06 45.88 15.04 45.78 15.01 C45.69 14.97 45.62 14.93 45.58 14.88 C45.54 14.83 45.52 14.78 45.52 14.71 L45.52 5.91 C45.52 5.85 45.54 5.79 45.57 5.74 C45.6 5.69 45.66 5.65 45.75 5.62 C45.83 5.59 45.94 5.56 46.08 5.55 C46.22 5.53 46.39 5.52 46.59 5.52 C46.8 5.52 46.98 5.53 47.12 5.55 C47.26 5.56 47.36 5.59 47.44 5.62 C47.52 5.65 47.57 5.69 47.6 5.74 C47.64 5.79 47.65 5.85 47.65 5.91 L47.65 6.93 C48.13 6.43 48.62 6.05 49.12 5.79 C49.61 5.54 50.13 5.42 50.67 5.42 C51.26 5.42 51.76 5.51 52.16 5.71 C52.57 5.91 52.9 6.17 53.15 6.51 C53.4 6.85 53.58 7.24 53.69 7.69 C53.8 8.14 53.85 8.68 53.85 9.31 Z"/>
      <path fill="#0c9a56" d="M64.48 14.71 C64.48 14.79 64.46 14.85 64.43 14.89 C64.4 14.94 64.34 14.98 64.27 15.02 C64.19 15.05 64.09 15.07 63.96 15.08 C63.83 15.1 63.66 15.1 63.47 15.1 C63.27 15.1 63.1 15.1 62.97 15.08 C62.85 15.07 62.74 15.05 62.66 15.01 C62.58 14.98 62.53 14.94 62.49 14.89 C62.46 14.83 62.44 14.77 62.44 14.7 L62.44 13.69 C61.99 14.17 61.51 14.54 61.02 14.81 C60.53 15.08 59.98 15.21 59.38 15.21 C58.71 15.21 58.15 15.08 57.69 14.82 C57.22 14.57 56.85 14.22 56.56 13.79 C56.27 13.35 56.06 12.84 55.93 12.26 C55.79 11.68 55.73 11.07 55.73 10.43 C55.73 9.66 55.81 8.96 55.98 8.35 C56.15 7.73 56.39 7.2 56.71 6.77 C57.03 6.34 57.43 6 57.91 5.77 C58.39 5.53 58.94 5.42 59.56 5.42 C60.05 5.42 60.5 5.52 60.9 5.71 C61.29 5.91 61.69 6.2 62.08 6.59 L62.08 1.88 C62.08 1.81 62.1 1.75 62.14 1.7 C62.17 1.65 62.24 1.61 62.33 1.57 C62.42 1.53 62.54 1.51 62.7 1.49 C62.85 1.47 63.04 1.46 63.28 1.46 C63.52 1.46 63.71 1.47 63.87 1.49 C64.02 1.51 64.14 1.53 64.23 1.57 C64.32 1.61 64.38 1.65 64.42 1.7 C64.46 1.75 64.48 1.81 64.48 1.88 Z M62.08 8.85 C61.73 8.41 61.39 8.08 61.06 7.85 C60.74 7.62 60.4 7.5 60.04 7.5 C59.72 7.5 59.44 7.58 59.21 7.74 C58.98 7.9 58.79 8.11 58.65 8.37 C58.51 8.64 58.4 8.93 58.33 9.26 C58.26 9.59 58.23 9.92 58.23 10.26 C58.23 10.63 58.26 10.98 58.32 11.32 C58.38 11.66 58.47 11.97 58.61 12.24 C58.74 12.51 58.92 12.72 59.15 12.88 C59.37 13.04 59.65 13.12 59.99 13.12 C60.16 13.12 60.33 13.1 60.49 13.05 C60.65 13 60.82 12.93 60.98 12.82 C61.15 12.71 61.32 12.56 61.5 12.39 C61.68 12.21 61.87 11.99 62.08 11.73 Z"/>
    </g>
    <g transform="matrix(1 0 0 1 19.875 66.625)">
      <path fill="#0c9a56" d="M4.78 10.34 C4.78 10.86 4.73 11.32 4.63 11.74 C4.54 12.15 4.37 12.5 4.13 12.79 C3.9 13.08 3.59 13.31 3.21 13.46 C2.83 13.61 2.36 13.69 1.8 13.69 C1.62 13.69 1.45 13.67 1.27 13.64 C1.1 13.62 0.93 13.58 0.79 13.53 C0.64 13.49 0.52 13.44 0.41 13.39 C0.3 13.34 0.23 13.29 0.2 13.26 C0.16 13.22 0.13 13.18 0.11 13.14 C0.08 13.1 0.06 13.05 0.04 12.98 C0.03 12.92 0.01 12.83 0.01 12.74 C0 12.64 0 12.52 0 12.37 C0 12.17 0 12.01 0.01 11.87 C0.02 11.74 0.04 11.63 0.06 11.55 C0.08 11.48 0.11 11.42 0.15 11.39 C0.19 11.36 0.24 11.34 0.3 11.34 C0.35 11.34 0.41 11.36 0.48 11.4 C0.56 11.44 0.64 11.49 0.73 11.53 C0.82 11.58 0.92 11.62 1.04 11.66 C1.16 11.7 1.3 11.72 1.46 11.72 C1.62 11.72 1.76 11.7 1.89 11.65 C2.01 11.61 2.11 11.53 2.19 11.42 C2.27 11.31 2.33 11.17 2.37 10.98 C2.42 10.8 2.44 10.57 2.44 10.28 L2.44 2.42 C2.44 2.36 2.46 2.31 2.5 2.26 C2.53 2.22 2.6 2.18 2.68 2.15 C2.77 2.12 2.89 2.1 3.04 2.08 C3.2 2.07 3.38 2.06 3.61 2.06 C3.83 2.06 4.02 2.07 4.17 2.08 C4.32 2.1 4.44 2.12 4.53 2.15 C4.62 2.18 4.68 2.22 4.72 2.26 C4.76 2.3 4.78 2.36 4.78 2.41 Z"/>
      <path fill="#0c9a56" d="M13.78 13.27 C13.78 13.35 13.75 13.41 13.69 13.46 C13.64 13.51 13.54 13.54 13.42 13.56 C13.29 13.58 13.11 13.59 12.86 13.59 C12.6 13.59 12.41 13.58 12.29 13.56 C12.17 13.54 12.09 13.51 12.04 13.46 C11.99 13.41 11.96 13.35 11.96 13.27 L11.96 12.64 C11.64 12.99 11.28 13.25 10.87 13.43 C10.46 13.6 10 13.69 9.5 13.69 C9.08 13.69 8.7 13.63 8.36 13.52 C8.01 13.42 7.71 13.25 7.46 13.04 C7.2 12.82 7.01 12.56 6.87 12.24 C6.73 11.92 6.66 11.55 6.66 11.12 C6.66 10.66 6.75 10.27 6.92 9.93 C7.1 9.59 7.37 9.31 7.72 9.09 C8.07 8.87 8.51 8.7 9.04 8.6 C9.56 8.49 10.17 8.44 10.86 8.44 L11.62 8.44 L11.62 7.98 C11.62 7.74 11.6 7.53 11.55 7.36 C11.5 7.18 11.42 7.03 11.31 6.91 C11.2 6.79 11.05 6.7 10.86 6.65 C10.67 6.59 10.44 6.56 10.16 6.56 C9.8 6.56 9.47 6.6 9.18 6.68 C8.9 6.76 8.65 6.84 8.43 6.94 C8.21 7.03 8.02 7.12 7.87 7.2 C7.73 7.27 7.61 7.31 7.51 7.31 C7.45 7.31 7.39 7.29 7.35 7.25 C7.3 7.21 7.26 7.16 7.23 7.08 C7.19 7.01 7.17 6.92 7.15 6.81 C7.13 6.7 7.12 6.58 7.12 6.45 C7.12 6.27 7.14 6.13 7.17 6.03 C7.2 5.93 7.25 5.83 7.33 5.75 C7.41 5.67 7.56 5.57 7.76 5.47 C7.96 5.36 8.2 5.27 8.47 5.18 C8.74 5.09 9.04 5.02 9.36 4.96 C9.68 4.9 10.02 4.87 10.36 4.87 C10.97 4.87 11.49 4.94 11.92 5.06 C12.35 5.18 12.7 5.36 12.98 5.61 C13.26 5.86 13.46 6.18 13.59 6.58 C13.72 6.97 13.78 7.44 13.78 7.98 Z M11.62 9.84 L10.79 9.84 C10.43 9.84 10.13 9.87 9.88 9.92 C9.63 9.97 9.42 10.05 9.27 10.16 C9.11 10.26 8.99 10.39 8.92 10.54 C8.85 10.68 8.81 10.86 8.81 11.05 C8.81 11.37 8.92 11.63 9.12 11.81 C9.33 12 9.62 12.09 9.98 12.09 C10.29 12.09 10.58 12.02 10.83 11.86 C11.09 11.7 11.36 11.47 11.62 11.17 Z"/>
      <path fill="#0c9a56" d="M23.53 13.24 C23.53 13.3 23.51 13.35 23.48 13.4 C23.44 13.44 23.38 13.48 23.3 13.51 C23.21 13.54 23.1 13.56 22.95 13.57 C22.81 13.59 22.63 13.59 22.41 13.59 C22.19 13.59 22.01 13.59 21.86 13.57 C21.71 13.56 21.6 13.54 21.51 13.51 C21.43 13.48 21.37 13.44 21.33 13.4 C21.3 13.35 21.28 13.3 21.28 13.24 L21.28 8.78 C21.28 8.4 21.25 8.1 21.2 7.89 C21.15 7.67 21.07 7.49 20.96 7.33 C20.86 7.18 20.73 7.06 20.56 6.97 C20.4 6.89 20.21 6.84 19.99 6.84 C19.72 6.84 19.44 6.95 19.16 7.15 C18.88 7.36 18.58 7.65 18.28 8.04 L18.28 13.24 C18.28 13.3 18.26 13.35 18.23 13.4 C18.19 13.44 18.13 13.48 18.04 13.51 C17.96 13.54 17.84 13.56 17.7 13.57 C17.56 13.59 17.38 13.59 17.16 13.59 C16.94 13.59 16.75 13.59 16.61 13.57 C16.47 13.56 16.35 13.54 16.27 13.51 C16.18 13.48 16.12 13.44 16.08 13.4 C16.05 13.35 16.03 13.3 16.03 13.24 L16.03 1.69 C16.03 1.63 16.05 1.58 16.08 1.53 C16.12 1.49 16.18 1.45 16.27 1.41 C16.35 1.38 16.47 1.36 16.61 1.34 C16.75 1.32 16.94 1.31 17.16 1.31 C17.38 1.31 17.56 1.32 17.7 1.34 C17.84 1.36 17.96 1.38 18.04 1.41 C18.13 1.44 18.19 1.48 18.23 1.53 C18.26 1.58 18.28 1.63 18.28 1.69 L18.28 5.99 C18.66 5.62 19.05 5.34 19.44 5.15 C19.83 4.97 20.24 4.87 20.67 4.87 C21.2 4.87 21.65 4.96 22.01 5.14 C22.38 5.32 22.67 5.56 22.9 5.86 C23.12 6.17 23.28 6.53 23.38 6.93 C23.48 7.34 23.53 7.84 23.53 8.42 Z"/>
      <path fill="#0c9a56" d="M30.75 6.1 C30.75 6.31 30.74 6.48 30.73 6.61 C30.72 6.75 30.7 6.85 30.68 6.93 C30.66 7 30.63 7.06 30.59 7.09 C30.55 7.12 30.5 7.13 30.44 7.13 C30.4 7.13 30.34 7.12 30.29 7.1 C30.23 7.08 30.16 7.06 30.09 7.03 C30.02 7.01 29.94 6.99 29.85 6.97 C29.76 6.95 29.66 6.94 29.56 6.94 C29.44 6.94 29.31 6.96 29.19 7.01 C29.07 7.06 28.94 7.14 28.81 7.24 C28.68 7.35 28.54 7.49 28.4 7.66 C28.25 7.83 28.1 8.05 27.94 8.31 L27.94 13.24 C27.94 13.3 27.92 13.35 27.88 13.39 C27.85 13.44 27.79 13.48 27.7 13.51 C27.61 13.53 27.5 13.56 27.36 13.57 C27.21 13.59 27.03 13.59 26.81 13.59 C26.59 13.59 26.41 13.59 26.27 13.57 C26.12 13.56 26.01 13.53 25.92 13.51 C25.84 13.48 25.78 13.44 25.74 13.39 C25.71 13.35 25.69 13.3 25.69 13.24 L25.69 5.32 C25.69 5.26 25.7 5.21 25.73 5.17 C25.76 5.12 25.82 5.09 25.89 5.06 C25.97 5.03 26.07 5.01 26.19 4.99 C26.31 4.98 26.47 4.97 26.65 4.97 C26.84 4.97 27 4.98 27.12 4.99 C27.25 5.01 27.35 5.03 27.41 5.06 C27.48 5.09 27.53 5.12 27.56 5.17 C27.59 5.21 27.61 5.26 27.61 5.32 L27.61 6.31 C27.81 6.02 28 5.79 28.19 5.61 C28.37 5.42 28.54 5.27 28.7 5.16 C28.87 5.06 29.03 4.98 29.2 4.94 C29.36 4.9 29.52 4.87 29.69 4.87 C29.76 4.87 29.85 4.88 29.93 4.89 C30.02 4.9 30.11 4.91 30.2 4.93 C30.3 4.95 30.38 4.98 30.45 5 C30.52 5.03 30.57 5.06 30.6 5.08 C30.64 5.11 30.66 5.15 30.68 5.18 C30.69 5.22 30.7 5.26 30.71 5.33 C30.73 5.39 30.74 5.48 30.74 5.6 C30.75 5.72 30.75 5.89 30.75 6.1 Z"/>
      <path fill="#0c9a56" d="M39.09 9.06 C39.09 9.32 39.03 9.52 38.91 9.65 C38.79 9.78 38.63 9.84 38.42 9.84 L33.66 9.84 C33.66 10.17 33.7 10.47 33.77 10.74 C33.85 11.01 33.98 11.24 34.15 11.42 C34.32 11.61 34.54 11.75 34.82 11.85 C35.09 11.95 35.41 12 35.79 12 C36.18 12 36.52 11.97 36.81 11.91 C37.1 11.85 37.35 11.79 37.57 11.72 C37.78 11.65 37.96 11.58 38.1 11.53 C38.24 11.47 38.35 11.44 38.44 11.44 C38.49 11.44 38.53 11.45 38.57 11.47 C38.6 11.49 38.63 11.53 38.66 11.58 C38.68 11.64 38.7 11.71 38.71 11.81 C38.71 11.91 38.72 12.04 38.72 12.19 C38.72 12.32 38.72 12.43 38.71 12.53 C38.7 12.62 38.7 12.7 38.68 12.76 C38.67 12.83 38.65 12.89 38.63 12.93 C38.61 12.98 38.58 13.02 38.54 13.06 C38.5 13.1 38.4 13.16 38.23 13.23 C38.06 13.3 37.84 13.37 37.58 13.44 C37.32 13.5 37.02 13.56 36.68 13.61 C36.34 13.66 35.97 13.69 35.59 13.69 C34.89 13.69 34.28 13.6 33.76 13.42 C33.24 13.25 32.8 12.98 32.45 12.63 C32.1 12.27 31.84 11.82 31.66 11.28 C31.49 10.74 31.41 10.1 31.41 9.37 C31.41 8.67 31.5 8.05 31.68 7.49 C31.86 6.93 32.12 6.46 32.47 6.07 C32.81 5.68 33.23 5.39 33.73 5.18 C34.22 4.98 34.78 4.87 35.4 4.87 C36.05 4.87 36.61 4.97 37.08 5.16 C37.54 5.36 37.93 5.62 38.22 5.97 C38.52 6.31 38.74 6.71 38.88 7.18 C39.02 7.65 39.09 8.16 39.09 8.7 Z M36.94 8.44 C36.95 7.82 36.83 7.34 36.57 6.99 C36.3 6.64 35.89 6.47 35.34 6.47 C35.06 6.47 34.82 6.52 34.61 6.62 C34.41 6.73 34.23 6.87 34.1 7.05 C33.96 7.22 33.86 7.43 33.78 7.67 C33.71 7.91 33.67 8.17 33.66 8.44 Z"/>
      <path fill="#0c9a56" d="M51.66 13.27 C51.66 13.35 51.63 13.41 51.57 13.46 C51.51 13.51 51.42 13.54 51.29 13.56 C51.17 13.58 50.98 13.59 50.74 13.59 C50.48 13.59 50.29 13.58 50.17 13.56 C50.05 13.54 49.96 13.51 49.91 13.46 C49.86 13.41 49.84 13.35 49.84 13.27 L49.84 12.64 C49.52 12.99 49.15 13.25 48.74 13.43 C48.33 13.6 47.87 13.69 47.37 13.69 C46.96 13.69 46.58 13.63 46.23 13.52 C45.89 13.42 45.59 13.25 45.33 13.04 C45.08 12.82 44.88 12.56 44.74 12.24 C44.6 11.92 44.53 11.55 44.53 11.12 C44.53 10.66 44.62 10.27 44.8 9.93 C44.98 9.59 45.24 9.31 45.59 9.09 C45.95 8.87 46.39 8.7 46.91 8.6 C47.44 8.49 48.04 8.44 48.74 8.44 L49.5 8.44 L49.5 7.98 C49.5 7.74 49.48 7.53 49.43 7.36 C49.38 7.18 49.3 7.03 49.18 6.91 C49.07 6.79 48.92 6.7 48.73 6.65 C48.55 6.59 48.31 6.56 48.04 6.56 C47.67 6.56 47.35 6.6 47.06 6.68 C46.77 6.76 46.52 6.84 46.3 6.94 C46.08 7.03 45.9 7.12 45.75 7.2 C45.6 7.27 45.48 7.31 45.39 7.31 C45.33 7.31 45.27 7.29 45.22 7.25 C45.17 7.21 45.13 7.16 45.1 7.08 C45.07 7.01 45.04 6.92 45.03 6.81 C45.01 6.7 45 6.58 45 6.45 C45 6.27 45.01 6.13 45.04 6.03 C45.07 5.93 45.13 5.83 45.21 5.75 C45.29 5.67 45.43 5.57 45.63 5.47 C45.84 5.36 46.07 5.27 46.35 5.18 C46.62 5.09 46.92 5.02 47.24 4.96 C47.56 4.9 47.89 4.87 48.23 4.87 C48.84 4.87 49.36 4.94 49.79 5.06 C50.22 5.18 50.58 5.36 50.86 5.61 C51.13 5.86 51.34 6.18 51.46 6.58 C51.59 6.97 51.66 7.44 51.66 7.98 Z M49.5 9.84 L48.66 9.84 C48.31 9.84 48 9.87 47.75 9.92 C47.5 9.97 47.3 10.05 47.14 10.16 C46.98 10.26 46.87 10.39 46.8 10.54 C46.72 10.68 46.69 10.86 46.69 11.05 C46.69 11.37 46.79 11.63 47 11.81 C47.2 12 47.49 12.09 47.86 12.09 C48.17 12.09 48.45 12.02 48.71 11.86 C48.97 11.7 49.23 11.47 49.5 11.17 Z"/>
      <path fill="#0c9a56" d="M56.16 13.24 C56.16 13.3 56.14 13.35 56.1 13.4 C56.07 13.44 56.01 13.48 55.92 13.51 C55.83 13.54 55.72 13.56 55.58 13.57 C55.43 13.59 55.25 13.59 55.03 13.59 C54.81 13.59 54.63 13.59 54.49 13.57 C54.34 13.56 54.23 13.54 54.14 13.51 C54.06 13.48 54 13.44 53.96 13.4 C53.92 13.35 53.91 13.3 53.91 13.24 L53.91 1.69 C53.91 1.63 53.92 1.58 53.96 1.53 C54 1.49 54.06 1.45 54.14 1.41 C54.23 1.38 54.34 1.36 54.49 1.34 C54.63 1.32 54.81 1.31 55.03 1.31 C55.25 1.31 55.43 1.32 55.58 1.34 C55.72 1.36 55.83 1.38 55.92 1.41 C56.01 1.45 56.07 1.49 56.1 1.53 C56.14 1.58 56.16 1.63 56.16 1.69 Z"/>
      <path fill="#0c9a56" d="M63 12.43 C63 12.69 62.98 12.89 62.95 13.03 C62.92 13.16 62.88 13.26 62.82 13.32 C62.77 13.38 62.69 13.43 62.59 13.47 C62.48 13.51 62.36 13.55 62.22 13.59 C62.08 13.62 61.93 13.64 61.77 13.66 C61.6 13.68 61.44 13.69 61.27 13.69 C60.83 13.69 60.44 13.63 60.12 13.52 C59.79 13.41 59.52 13.24 59.31 13 C59.1 12.77 58.94 12.48 58.84 12.13 C58.74 11.77 58.69 11.36 58.69 10.87 L58.69 6.84 L57.72 6.84 C57.61 6.84 57.53 6.78 57.46 6.64 C57.4 6.5 57.37 6.27 57.37 5.95 C57.37 5.78 57.38 5.64 57.4 5.53 C57.41 5.41 57.44 5.32 57.46 5.25 C57.49 5.18 57.53 5.14 57.58 5.11 C57.62 5.08 57.67 5.06 57.73 5.06 L58.69 5.06 L58.69 3.28 C58.69 3.22 58.7 3.17 58.74 3.12 C58.77 3.07 58.83 3.03 58.92 3 C59 2.97 59.12 2.94 59.27 2.93 C59.41 2.91 59.59 2.91 59.81 2.91 C60.03 2.91 60.21 2.91 60.36 2.93 C60.51 2.94 60.62 2.97 60.7 3 C60.79 3.03 60.85 3.07 60.88 3.12 C60.92 3.17 60.94 3.22 60.94 3.28 L60.94 5.06 L62.65 5.06 C62.71 5.06 62.76 5.08 62.8 5.11 C62.85 5.14 62.88 5.18 62.91 5.25 C62.94 5.32 62.96 5.41 62.98 5.53 C62.99 5.64 63 5.78 63 5.95 C63 6.27 62.97 6.5 62.91 6.64 C62.85 6.78 62.77 6.84 62.66 6.84 L60.94 6.84 L60.94 10.53 C60.94 10.96 61.01 11.28 61.14 11.49 C61.28 11.71 61.52 11.81 61.86 11.81 C61.98 11.81 62.09 11.8 62.18 11.78 C62.27 11.76 62.36 11.74 62.43 11.71 C62.5 11.68 62.57 11.66 62.62 11.64 C62.67 11.62 62.71 11.61 62.75 11.61 C62.79 11.61 62.82 11.62 62.85 11.64 C62.89 11.66 62.91 11.7 62.93 11.76 C62.95 11.83 62.96 11.91 62.98 12.02 C62.99 12.12 63 12.26 63 12.43 Z"/>
    </g>
    <path transform="matrix(0.552384 0 0 0.518807 28.671347 28.339817)" fill="#0c9a56" d="M19.32 65.45 C18.85 65.45 18.47 65.3 18.17 64.99 C17.86 64.69 17.71 64.3 17.71 63.84 L17.71 24.64 L6.09 33.6 C5.72 33.88 5.32 34 4.9 33.95 C4.48 33.9 4.13 33.69 3.85 33.32 L2.03 31.01 C1.75 30.59 1.65 30.17 1.71 29.75 C1.78 29.33 2.01 28.98 2.38 28.7 L17.64 16.94 C17.97 16.71 18.27 16.57 18.55 16.52 C18.83 16.47 19.13 16.45 19.46 16.45 L23.03 16.45 C23.5 16.45 23.88 16.6 24.18 16.9 C24.49 17.21 24.64 17.59 24.64 18.06 L24.64 63.84 C24.64 64.3 24.49 64.69 24.18 64.99 C23.88 65.3 23.5 65.45 23.03 65.45 Z M52.19 66.15 C48.97 66.15 46.25 65.65 44.03 64.64 C41.82 63.64 40.01 62.25 38.61 60.48 C37.21 58.71 36.2 56.68 35.57 54.39 C34.94 52.1 34.57 49.68 34.48 47.11 C34.43 45.85 34.4 44.52 34.37 43.12 C34.35 41.72 34.35 40.29 34.37 38.85 C34.4 37.4 34.43 36.03 34.48 34.72 C34.53 32.16 34.89 29.73 35.57 27.44 C36.24 25.16 37.28 23.14 38.68 21.39 C40.08 19.64 41.89 18.26 44.1 17.26 C46.32 16.25 49.02 15.75 52.19 15.75 C55.41 15.75 58.13 16.25 60.35 17.26 C62.56 18.26 64.37 19.64 65.77 21.39 C67.17 23.14 68.21 25.16 68.88 27.44 C69.56 29.73 69.92 32.16 69.97 34.72 C70.02 36.03 70.05 37.4 70.08 38.85 C70.1 40.29 70.1 41.72 70.08 43.12 C70.05 44.52 70.02 45.85 69.97 47.11 C69.92 49.68 69.56 52.1 68.88 54.39 C68.21 56.68 67.18 58.71 65.81 60.48 C64.43 62.25 62.63 63.64 60.41 64.64 C58.2 65.65 55.45 66.15 52.19 66.15 Z M52.19 60.13 C55.83 60.13 58.53 58.94 60.27 56.56 C62.02 54.18 62.92 50.91 62.97 46.76 C63.06 45.41 63.11 44.09 63.11 42.81 C63.11 41.52 63.11 40.24 63.11 38.95 C63.11 37.67 63.06 36.4 62.97 35.14 C62.92 31.08 62.02 27.82 60.27 25.37 C58.53 22.92 55.83 21.7 52.19 21.7 C48.6 21.7 45.92 22.92 44.18 25.37 C42.43 27.82 41.51 31.08 41.41 35.14 C41.41 36.4 41.4 37.67 41.38 38.95 C41.35 40.24 41.35 41.52 41.38 42.81 C41.4 44.09 41.41 45.41 41.41 46.76 C41.51 50.91 42.44 54.18 44.21 56.56 C45.98 58.94 48.64 60.13 52.19 60.13 Z"/>
  </g>
</svg>
