<?xml version="1.0" encoding="UTF-8" standalone="no"?>
<!-- Created with PhotoLine 25.00 (www.pl32.com) -->
<!DOCTYPE svg PUBLIC "-//W3C//DTD SVG 1.1//EN" "http://www.w3.org/Graphics/SVG/1.1/DTD/svg11.dtd">
<svg width="194" height="194" viewBox="0 0 194 194" version="1.1" xmlns="http://www.w3.org/2000/svg" xmlns:xlink="http://www.w3.org/1999/xlink">
  <g transform="matrix(1.9375 0 0 1.9375 0 0)">
    <g id="Circle/Ellipse" transform="matrix(1.886792 0 0 3.125 -50 -76.5625)">
      <path fill="#f2f3f3" fill-rule="evenodd" d="M26.5 40.5 C26.5 31.67 38.38 24.5 53 24.5 C67.62 24.5 79.5 31.67 79.5 40.5 C79.5 49.33 67.62 56.5 53 56.5 C38.38 56.5 26.5 49.33 26.5 40.5 Z"/>
    </g>
    <g transform="matrix(1 0 0 1 13.625001 18.625)">
      <path fill="#0c9a56" d="M6.48 11.06 C6.48 11.12 6.46 11.18 6.41 11.22 C6.36 11.26 6.29 11.29 6.18 11.3 C6.08 11.32 5.92 11.33 5.72 11.33 C5.5 11.33 5.34 11.32 5.24 11.3 C5.14 11.29 5.07 11.26 5.03 11.22 C4.99 11.18 4.97 11.13 4.97 11.06 L4.97 10.54 C4.7 10.83 4.4 11.04 4.06 11.19 C3.71 11.33 3.33 11.41 2.91 11.41 C2.57 11.41 2.25 11.36 1.96 11.27 C1.68 11.18 1.43 11.04 1.21 10.86 C1 10.69 0.84 10.46 0.72 10.2 C0.61 9.93 0.55 9.62 0.55 9.27 C0.55 8.89 0.62 8.55 0.77 8.27 C0.92 7.99 1.14 7.76 1.43 7.57 C1.73 7.39 2.09 7.25 2.53 7.16 C2.97 7.08 3.47 7.03 4.05 7.03 L4.69 7.03 L4.69 6.65 C4.69 6.45 4.67 6.28 4.63 6.13 C4.58 5.98 4.52 5.86 4.42 5.76 C4.33 5.66 4.21 5.59 4.05 5.54 C3.89 5.49 3.7 5.47 3.47 5.47 C3.16 5.47 2.89 5.5 2.65 5.57 C2.42 5.63 2.2 5.7 2.02 5.78 C1.84 5.86 1.69 5.93 1.56 6 C1.44 6.06 1.34 6.09 1.26 6.09 C1.21 6.09 1.16 6.08 1.12 6.04 C1.08 6.01 1.05 5.96 1.02 5.9 C0.99 5.84 0.97 5.76 0.96 5.67 C0.94 5.58 0.94 5.48 0.94 5.37 C0.94 5.22 0.95 5.11 0.97 5.02 C1 4.94 1.04 4.86 1.11 4.79 C1.18 4.72 1.3 4.64 1.47 4.56 C1.64 4.47 1.83 4.39 2.06 4.32 C2.29 4.24 2.53 4.18 2.8 4.13 C3.07 4.09 3.35 4.06 3.63 4.06 C4.14 4.06 4.57 4.11 4.93 4.21 C5.29 4.31 5.59 4.47 5.82 4.68 C6.05 4.88 6.22 5.15 6.32 5.48 C6.43 5.81 6.48 6.2 6.48 6.65 Z M4.69 8.2 L3.99 8.2 C3.69 8.2 3.44 8.22 3.23 8.27 C3.02 8.31 2.85 8.38 2.72 8.46 C2.59 8.55 2.5 8.66 2.43 8.78 C2.37 8.9 2.34 9.05 2.34 9.21 C2.34 9.48 2.43 9.69 2.6 9.85 C2.77 10 3.01 10.08 3.32 10.08 C3.58 10.08 3.81 10.01 4.03 9.88 C4.24 9.75 4.46 9.56 4.69 9.31 Z"/>
      <path fill="#0c9a56" d="M14.61 11.03 C14.61 11.08 14.59 11.13 14.56 11.16 C14.54 11.2 14.49 11.23 14.42 11.25 C14.35 11.28 14.25 11.3 14.13 11.31 C14.01 11.32 13.85 11.33 13.68 11.33 C13.49 11.33 13.34 11.32 13.22 11.31 C13.09 11.3 13 11.28 12.93 11.25 C12.86 11.23 12.81 11.2 12.78 11.16 C12.75 11.13 12.73 11.08 12.73 11.04 L12.73 7.32 C12.73 7 12.71 6.75 12.67 6.57 C12.62 6.39 12.56 6.24 12.47 6.11 C12.38 5.98 12.27 5.88 12.14 5.81 C12 5.74 11.84 5.7 11.66 5.7 C11.43 5.7 11.2 5.79 10.96 5.96 C10.73 6.13 10.49 6.38 10.23 6.7 L10.23 11.04 C10.23 11.08 10.22 11.13 10.19 11.16 C10.16 11.2 10.11 11.23 10.04 11.25 C9.97 11.28 9.87 11.3 9.75 11.31 C9.63 11.32 9.48 11.33 9.3 11.33 C9.11 11.33 8.96 11.32 8.84 11.31 C8.72 11.3 8.63 11.28 8.56 11.25 C8.48 11.23 8.43 11.2 8.4 11.16 C8.37 11.12 8.36 11.08 8.36 11.03 L8.36 4.44 C8.36 4.39 8.37 4.34 8.4 4.31 C8.42 4.27 8.47 4.24 8.53 4.21 C8.59 4.19 8.68 4.17 8.78 4.16 C8.88 4.15 9.01 4.14 9.16 4.14 C9.32 4.14 9.45 4.15 9.56 4.16 C9.66 4.17 9.74 4.19 9.8 4.21 C9.86 4.24 9.9 4.27 9.92 4.31 C9.95 4.34 9.96 4.39 9.96 4.44 L9.96 5.2 C10.32 4.82 10.69 4.54 11.06 4.35 C11.43 4.16 11.82 4.06 12.22 4.06 C12.66 4.06 13.04 4.14 13.34 4.28 C13.65 4.43 13.89 4.63 14.08 4.88 C14.27 5.13 14.4 5.43 14.49 5.77 C14.57 6.1 14.61 6.51 14.61 6.99 Z"/>
      <path fill="#0c9a56" d="M22.66 11.03 C22.66 11.08 22.64 11.13 22.61 11.16 C22.58 11.2 22.53 11.23 22.46 11.25 C22.39 11.28 22.3 11.3 22.17 11.31 C22.05 11.32 21.9 11.33 21.72 11.33 C21.54 11.33 21.39 11.32 21.26 11.31 C21.14 11.3 21.05 11.28 20.98 11.25 C20.91 11.23 20.86 11.2 20.83 11.16 C20.8 11.13 20.78 11.08 20.78 11.04 L20.78 7.32 C20.78 7 20.76 6.75 20.71 6.57 C20.67 6.39 20.6 6.24 20.52 6.11 C20.43 5.98 20.32 5.88 20.18 5.81 C20.05 5.74 19.89 5.7 19.71 5.7 C19.48 5.7 19.25 5.79 19.01 5.96 C18.78 6.13 18.53 6.38 18.28 6.7 L18.28 11.04 C18.28 11.08 18.27 11.13 18.24 11.16 C18.21 11.2 18.16 11.23 18.08 11.25 C18.01 11.28 17.92 11.3 17.8 11.31 C17.68 11.32 17.53 11.33 17.34 11.33 C17.16 11.33 17.01 11.32 16.89 11.31 C16.77 11.3 16.68 11.28 16.6 11.25 C16.53 11.23 16.48 11.2 16.45 11.16 C16.42 11.12 16.41 11.08 16.41 11.03 L16.41 4.44 C16.41 4.39 16.42 4.34 16.44 4.31 C16.47 4.27 16.51 4.24 16.58 4.21 C16.64 4.19 16.72 4.17 16.83 4.16 C16.93 4.15 17.06 4.14 17.21 4.14 C17.37 4.14 17.5 4.15 17.6 4.16 C17.71 4.17 17.79 4.19 17.85 4.21 C17.9 4.24 17.94 4.27 17.97 4.31 C17.99 4.34 18.01 4.39 18.01 4.44 L18.01 5.2 C18.37 4.82 18.73 4.54 19.1 4.35 C19.48 4.16 19.86 4.06 20.27 4.06 C20.71 4.06 21.08 4.14 21.39 4.28 C21.69 4.43 21.94 4.63 22.13 4.88 C22.31 5.13 22.45 5.43 22.53 5.77 C22.61 6.1 22.66 6.51 22.66 6.99 Z"/>
      <path fill="#0c9a56" d="M26.33 11.03 C26.33 11.08 26.31 11.12 26.28 11.16 C26.25 11.2 26.2 11.23 26.13 11.25 C26.06 11.28 25.96 11.3 25.84 11.31 C25.73 11.32 25.57 11.33 25.39 11.33 C25.21 11.33 25.06 11.32 24.94 11.31 C24.82 11.3 24.72 11.28 24.65 11.25 C24.58 11.23 24.53 11.2 24.5 11.16 C24.47 11.12 24.45 11.08 24.45 11.03 L24.45 4.45 C24.45 4.4 24.47 4.36 24.5 4.32 C24.53 4.28 24.58 4.25 24.65 4.23 C24.72 4.2 24.82 4.18 24.94 4.16 C25.06 4.15 25.21 4.14 25.39 4.14 C25.57 4.14 25.73 4.15 25.84 4.16 C25.96 4.18 26.06 4.2 26.13 4.23 C26.2 4.25 26.25 4.28 26.28 4.32 C26.31 4.36 26.33 4.4 26.33 4.45 Z M26.41 2.21 C26.41 2.59 26.33 2.84 26.18 2.99 C26.03 3.13 25.75 3.2 25.34 3.2 C24.93 3.2 24.65 3.13 24.51 3 C24.37 2.86 24.3 2.61 24.3 2.25 C24.3 1.87 24.37 1.61 24.52 1.47 C24.67 1.32 24.95 1.25 25.36 1.25 C25.77 1.25 26.04 1.32 26.19 1.46 C26.33 1.6 26.41 1.85 26.41 2.21 Z"/>
      <path fill="#0c9a56" d="M34.18 4.43 C34.18 4.45 34.18 4.48 34.18 4.52 C34.17 4.55 34.17 4.59 34.16 4.63 C34.15 4.67 34.14 4.72 34.13 4.78 C34.12 4.83 34.1 4.89 34.08 4.96 L32.1 10.93 C32.08 11.01 32.05 11.08 32.01 11.13 C31.96 11.18 31.9 11.22 31.8 11.25 C31.7 11.28 31.57 11.3 31.41 11.31 C31.25 11.32 31.03 11.33 30.77 11.33 C30.51 11.33 30.3 11.32 30.13 11.31 C29.97 11.3 29.84 11.28 29.75 11.25 C29.65 11.22 29.59 11.18 29.54 11.12 C29.5 11.07 29.47 11.01 29.45 10.93 L27.49 4.96 C27.46 4.86 27.43 4.77 27.42 4.69 C27.4 4.62 27.39 4.56 27.39 4.53 C27.38 4.49 27.38 4.46 27.38 4.43 C27.38 4.38 27.4 4.34 27.42 4.3 C27.45 4.26 27.5 4.23 27.56 4.21 C27.63 4.18 27.72 4.16 27.84 4.16 C27.96 4.15 28.1 4.14 28.28 4.14 C28.48 4.14 28.64 4.15 28.75 4.16 C28.87 4.17 28.97 4.19 29.04 4.21 C29.11 4.23 29.16 4.27 29.19 4.31 C29.21 4.35 29.24 4.4 29.26 4.46 L30.78 9.3 L30.82 9.49 L30.87 9.3 L32.38 4.46 C32.4 4.4 32.42 4.35 32.45 4.31 C32.48 4.27 32.53 4.23 32.6 4.21 C32.67 4.19 32.76 4.17 32.87 4.16 C32.98 4.15 33.13 4.14 33.31 4.14 C33.49 4.14 33.64 4.15 33.75 4.16 C33.86 4.16 33.95 4.18 34.01 4.21 C34.08 4.23 34.12 4.26 34.14 4.3 C34.17 4.34 34.18 4.38 34.18 4.43 Z"/>
      <path fill="#0c9a56" d="M41.09 7.55 C41.09 7.77 41.04 7.94 40.94 8.04 C40.84 8.15 40.71 8.2 40.53 8.2 L36.56 8.2 C36.56 8.48 36.6 8.73 36.66 8.95 C36.73 9.17 36.83 9.36 36.97 9.52 C37.12 9.68 37.3 9.8 37.53 9.88 C37.76 9.96 38.03 10 38.34 10 C38.66 10 38.95 9.98 39.19 9.93 C39.43 9.88 39.64 9.82 39.82 9.77 C40 9.71 40.15 9.65 40.26 9.6 C40.38 9.56 40.47 9.53 40.55 9.53 C40.59 9.53 40.63 9.54 40.66 9.56 C40.69 9.57 40.71 9.61 40.73 9.65 C40.75 9.7 40.76 9.76 40.77 9.84 C40.78 9.93 40.78 10.03 40.78 10.15 C40.78 10.27 40.78 10.36 40.77 10.44 C40.77 10.52 40.76 10.58 40.75 10.64 C40.74 10.69 40.73 10.74 40.71 10.78 C40.69 10.81 40.66 10.85 40.63 10.88 C40.6 10.92 40.51 10.97 40.37 11.03 C40.23 11.08 40.05 11.14 39.83 11.2 C39.61 11.25 39.36 11.3 39.08 11.34 C38.8 11.39 38.49 11.41 38.17 11.41 C37.59 11.41 37.09 11.33 36.65 11.19 C36.21 11.04 35.85 10.82 35.56 10.52 C35.26 10.23 35.05 9.85 34.9 9.4 C34.76 8.95 34.69 8.42 34.69 7.81 C34.69 7.23 34.76 6.71 34.91 6.24 C35.06 5.78 35.28 5.38 35.57 5.06 C35.86 4.74 36.21 4.49 36.62 4.32 C37.03 4.15 37.5 4.06 38.02 4.06 C38.56 4.06 39.03 4.14 39.42 4.3 C39.8 4.46 40.12 4.69 40.37 4.97 C40.62 5.26 40.8 5.59 40.92 5.98 C41.04 6.37 41.09 6.8 41.09 7.25 Z M39.3 7.03 C39.31 6.52 39.21 6.12 38.99 5.83 C38.77 5.54 38.43 5.39 37.97 5.39 C37.73 5.39 37.53 5.43 37.36 5.52 C37.19 5.61 37.04 5.72 36.93 5.87 C36.82 6.02 36.73 6.19 36.67 6.39 C36.61 6.59 36.57 6.8 36.56 7.03 Z"/>
      <path fill="#0c9a56" d="M46.87 5.08 C46.87 5.26 46.87 5.4 46.86 5.51 C46.85 5.62 46.84 5.71 46.82 5.77 C46.8 5.84 46.77 5.88 46.74 5.91 C46.71 5.93 46.67 5.94 46.62 5.94 C46.58 5.94 46.54 5.93 46.49 5.92 C46.44 5.9 46.38 5.88 46.32 5.86 C46.26 5.84 46.2 5.82 46.12 5.81 C46.05 5.79 45.97 5.78 45.88 5.78 C45.78 5.78 45.68 5.8 45.58 5.84 C45.47 5.88 45.37 5.95 45.26 6.04 C45.15 6.12 45.03 6.24 44.91 6.38 C44.79 6.53 44.67 6.71 44.53 6.92 L44.53 11.03 C44.53 11.08 44.52 11.12 44.49 11.16 C44.46 11.2 44.41 11.23 44.33 11.25 C44.26 11.28 44.17 11.3 44.05 11.31 C43.93 11.32 43.78 11.33 43.59 11.33 C43.41 11.33 43.26 11.32 43.14 11.31 C43.02 11.3 42.93 11.28 42.85 11.25 C42.78 11.23 42.73 11.2 42.7 11.16 C42.67 11.12 42.66 11.08 42.66 11.03 L42.66 4.44 C42.66 4.39 42.67 4.34 42.69 4.31 C42.72 4.27 42.76 4.24 42.83 4.21 C42.89 4.19 42.97 4.17 43.08 4.16 C43.18 4.15 43.31 4.14 43.46 4.14 C43.62 4.14 43.75 4.15 43.85 4.16 C43.96 4.17 44.04 4.19 44.1 4.21 C44.15 4.24 44.19 4.27 44.22 4.31 C44.24 4.34 44.26 4.39 44.26 4.44 L44.26 5.26 C44.43 5.02 44.59 4.83 44.74 4.67 C44.89 4.52 45.03 4.39 45.17 4.3 C45.31 4.21 45.44 4.15 45.58 4.12 C45.72 4.08 45.85 4.06 45.99 4.06 C46.05 4.06 46.12 4.07 46.19 4.07 C46.27 4.08 46.34 4.09 46.42 4.11 C46.5 4.13 46.57 4.15 46.63 4.17 C46.68 4.19 46.73 4.21 46.75 4.24 C46.78 4.26 46.8 4.29 46.81 4.32 C46.82 4.35 46.84 4.39 46.85 4.44 C46.86 4.49 46.86 4.56 46.87 4.67 C46.87 4.77 46.87 4.91 46.87 5.08 Z"/>
      <path fill="#0c9a56" d="M52.42 9.15 C52.42 9.52 52.35 9.85 52.21 10.13 C52.07 10.41 51.88 10.65 51.62 10.84 C51.37 11.03 51.07 11.17 50.72 11.26 C50.37 11.36 49.99 11.41 49.59 11.41 C49.34 11.41 49.11 11.39 48.89 11.35 C48.66 11.31 48.46 11.26 48.29 11.21 C48.11 11.15 47.96 11.09 47.85 11.03 C47.73 10.97 47.64 10.91 47.59 10.86 C47.54 10.81 47.5 10.73 47.47 10.62 C47.44 10.51 47.42 10.34 47.42 10.13 C47.42 9.99 47.43 9.87 47.44 9.79 C47.45 9.7 47.46 9.63 47.48 9.58 C47.5 9.53 47.52 9.5 47.55 9.48 C47.58 9.46 47.62 9.45 47.66 9.45 C47.72 9.45 47.8 9.49 47.9 9.55 C48.01 9.61 48.14 9.68 48.3 9.76 C48.45 9.84 48.64 9.91 48.84 9.98 C49.05 10.04 49.29 10.08 49.55 10.08 C49.72 10.08 49.87 10.06 50 10.03 C50.13 9.99 50.24 9.94 50.33 9.88 C50.43 9.81 50.5 9.73 50.55 9.64 C50.6 9.54 50.62 9.42 50.62 9.3 C50.62 9.15 50.58 9.03 50.49 8.92 C50.4 8.82 50.27 8.72 50.12 8.65 C49.97 8.57 49.8 8.5 49.61 8.43 C49.42 8.36 49.22 8.28 49.02 8.2 C48.82 8.12 48.63 8.02 48.44 7.92 C48.25 7.81 48.07 7.68 47.92 7.52 C47.77 7.37 47.65 7.18 47.56 6.96 C47.47 6.74 47.42 6.48 47.42 6.17 C47.42 5.86 47.48 5.58 47.61 5.31 C47.73 5.05 47.91 4.83 48.14 4.65 C48.37 4.46 48.65 4.32 48.98 4.22 C49.31 4.11 49.68 4.06 50.1 4.06 C50.3 4.06 50.5 4.08 50.69 4.11 C50.89 4.13 51.06 4.17 51.22 4.21 C51.38 4.25 51.51 4.3 51.62 4.35 C51.73 4.4 51.8 4.44 51.85 4.48 C51.9 4.51 51.93 4.55 51.95 4.59 C51.97 4.62 51.98 4.67 51.99 4.72 C52 4.77 52.01 4.84 52.02 4.92 C52.03 4.99 52.03 5.09 52.03 5.2 C52.03 5.34 52.03 5.45 52.02 5.53 C52.01 5.62 52 5.68 51.98 5.73 C51.97 5.78 51.94 5.82 51.91 5.83 C51.88 5.85 51.85 5.86 51.81 5.86 C51.76 5.86 51.69 5.83 51.6 5.78 C51.51 5.74 51.39 5.68 51.25 5.62 C51.11 5.57 50.94 5.51 50.76 5.46 C50.57 5.42 50.36 5.39 50.12 5.39 C49.95 5.39 49.81 5.41 49.68 5.44 C49.56 5.47 49.46 5.52 49.38 5.58 C49.3 5.64 49.24 5.71 49.2 5.79 C49.16 5.87 49.14 5.96 49.14 6.06 C49.14 6.21 49.19 6.33 49.28 6.44 C49.38 6.54 49.5 6.63 49.66 6.71 C49.81 6.78 49.99 6.86 50.18 6.92 C50.38 6.99 50.58 7.07 50.78 7.15 C50.98 7.23 51.18 7.32 51.38 7.43 C51.58 7.54 51.75 7.67 51.91 7.82 C52.06 7.98 52.18 8.16 52.28 8.38 C52.37 8.6 52.42 8.85 52.42 9.15 Z"/>
      <path fill="#0c9a56" d="M59.37 11.06 C59.37 11.12 59.35 11.18 59.3 11.22 C59.25 11.26 59.18 11.29 59.07 11.3 C58.97 11.32 58.81 11.33 58.61 11.33 C58.39 11.33 58.23 11.32 58.13 11.3 C58.03 11.29 57.96 11.26 57.92 11.22 C57.88 11.18 57.86 11.13 57.86 11.06 L57.86 10.54 C57.59 10.83 57.29 11.04 56.95 11.19 C56.6 11.33 56.22 11.41 55.81 11.41 C55.46 11.41 55.14 11.36 54.85 11.27 C54.57 11.18 54.32 11.04 54.1 10.86 C53.89 10.69 53.73 10.46 53.61 10.2 C53.5 9.93 53.44 9.62 53.44 9.27 C53.44 8.89 53.51 8.55 53.66 8.27 C53.81 7.99 54.03 7.76 54.32 7.57 C54.62 7.39 54.98 7.25 55.42 7.16 C55.86 7.08 56.37 7.03 56.94 7.03 L57.58 7.03 L57.58 6.65 C57.58 6.45 57.56 6.28 57.52 6.13 C57.48 5.98 57.41 5.86 57.31 5.76 C57.22 5.66 57.1 5.59 56.94 5.54 C56.78 5.49 56.59 5.47 56.36 5.47 C56.05 5.47 55.78 5.5 55.54 5.57 C55.31 5.63 55.1 5.7 54.91 5.78 C54.73 5.86 54.58 5.93 54.45 6 C54.33 6.06 54.23 6.09 54.15 6.09 C54.1 6.09 54.05 6.08 54.01 6.04 C53.97 6.01 53.94 5.96 53.91 5.9 C53.89 5.84 53.86 5.76 53.85 5.67 C53.84 5.58 53.83 5.48 53.83 5.37 C53.83 5.22 53.84 5.11 53.86 5.02 C53.89 4.94 53.93 4.86 54 4.79 C54.07 4.72 54.19 4.64 54.36 4.56 C54.53 4.47 54.72 4.39 54.95 4.32 C55.18 4.24 55.42 4.18 55.69 4.13 C55.96 4.09 56.24 4.06 56.52 4.06 C57.03 4.06 57.46 4.11 57.82 4.21 C58.18 4.31 58.48 4.47 58.71 4.68 C58.94 4.88 59.11 5.15 59.22 5.48 C59.32 5.81 59.37 6.2 59.37 6.65 Z M57.58 8.2 L56.88 8.2 C56.58 8.2 56.33 8.22 56.12 8.27 C55.91 8.31 55.74 8.38 55.61 8.46 C55.48 8.55 55.39 8.66 55.33 8.78 C55.26 8.9 55.23 9.05 55.23 9.21 C55.23 9.48 55.32 9.69 55.49 9.85 C55.66 10 55.9 10.08 56.21 10.08 C56.47 10.08 56.7 10.01 56.92 9.88 C57.14 9.75 57.36 9.56 57.58 9.31 Z"/>
      <path fill="#0c9a56" d="M65.47 5.08 C65.47 5.26 65.46 5.4 65.45 5.51 C65.44 5.62 65.43 5.71 65.41 5.77 C65.39 5.84 65.36 5.88 65.33 5.91 C65.3 5.93 65.26 5.94 65.21 5.94 C65.17 5.94 65.13 5.93 65.08 5.92 C65.03 5.9 64.98 5.88 64.92 5.86 C64.86 5.84 64.79 5.82 64.72 5.81 C64.64 5.79 64.56 5.78 64.48 5.78 C64.37 5.78 64.27 5.8 64.17 5.84 C64.07 5.88 63.96 5.95 63.85 6.04 C63.74 6.12 63.63 6.24 63.51 6.38 C63.39 6.53 63.26 6.71 63.12 6.92 L63.12 11.03 C63.12 11.08 63.11 11.12 63.08 11.16 C63.05 11.2 63 11.23 62.93 11.25 C62.86 11.28 62.76 11.3 62.64 11.31 C62.52 11.32 62.37 11.33 62.19 11.33 C62 11.33 61.85 11.32 61.73 11.31 C61.61 11.3 61.52 11.28 61.45 11.25 C61.38 11.23 61.32 11.2 61.29 11.16 C61.26 11.12 61.25 11.08 61.25 11.03 L61.25 4.44 C61.25 4.39 61.26 4.34 61.29 4.31 C61.31 4.27 61.36 4.24 61.42 4.21 C61.49 4.19 61.57 4.17 61.67 4.16 C61.77 4.15 61.9 4.14 62.05 4.14 C62.21 4.14 62.34 4.15 62.45 4.16 C62.55 4.17 62.63 4.19 62.69 4.21 C62.75 4.24 62.79 4.27 62.81 4.31 C62.84 4.34 62.85 4.39 62.85 4.44 L62.85 5.26 C63.02 5.02 63.18 4.83 63.33 4.67 C63.48 4.52 63.63 4.39 63.76 4.3 C63.9 4.21 64.04 4.15 64.17 4.12 C64.31 4.08 64.45 4.06 64.58 4.06 C64.65 4.06 64.72 4.07 64.79 4.07 C64.86 4.08 64.94 4.09 65.01 4.11 C65.09 4.13 65.16 4.15 65.22 4.17 C65.28 4.19 65.32 4.21 65.35 4.24 C65.37 4.26 65.39 4.29 65.41 4.32 C65.42 4.35 65.43 4.39 65.44 4.44 C65.45 4.49 65.46 4.56 65.46 4.67 C65.47 4.77 65.47 4.91 65.47 5.08 Z"/>
      <path fill="#0c9a56" d="M70.43 11.25 L69.69 13.56 C69.64 13.68 69.52 13.77 69.32 13.83 C69.12 13.88 68.83 13.91 68.45 13.91 C68.25 13.91 68.09 13.9 67.98 13.88 C67.86 13.86 67.77 13.84 67.71 13.8 C67.65 13.76 67.62 13.71 67.61 13.65 C67.61 13.59 67.62 13.52 67.66 13.44 L68.51 11.25 C68.44 11.22 68.39 11.18 68.33 11.11 C68.28 11.05 68.25 10.99 68.22 10.92 L65.98 4.88 C65.91 4.71 65.88 4.58 65.88 4.49 C65.88 4.4 65.91 4.33 65.97 4.28 C66.03 4.22 66.13 4.19 66.26 4.17 C66.4 4.15 66.59 4.14 66.82 4.14 C67.02 4.14 67.19 4.14 67.31 4.15 C67.43 4.16 67.53 4.18 67.6 4.21 C67.66 4.24 67.71 4.28 67.75 4.34 C67.78 4.4 67.82 4.49 67.85 4.6 L69.39 9 L69.41 9 L70.82 4.52 C70.85 4.39 70.89 4.3 70.93 4.26 C70.98 4.22 71.06 4.19 71.17 4.17 C71.28 4.15 71.47 4.14 71.74 4.14 C71.95 4.14 72.13 4.15 72.27 4.17 C72.41 4.19 72.51 4.23 72.58 4.28 C72.64 4.33 72.68 4.41 72.68 4.5 C72.68 4.59 72.66 4.7 72.62 4.82 Z"/>
    </g>
    <g transform="matrix(1 0 0 1 25.75 59)">
      <path fill="#0c9a56" d="M7.56 18 L6.37 21.7 C6.3 21.89 6.11 22.04 5.79 22.12 C5.47 22.21 5.01 22.25 4.4 22.25 C4.08 22.25 3.83 22.24 3.64 22.21 C3.45 22.18 3.3 22.14 3.21 22.07 C3.11 22.01 3.06 21.93 3.05 21.84 C3.05 21.75 3.07 21.63 3.12 21.5 L4.49 18 C4.38 17.95 4.29 17.88 4.21 17.78 C4.13 17.68 4.07 17.58 4.03 17.47 L0.44 7.81 C0.34 7.54 0.29 7.33 0.29 7.18 C0.29 7.04 0.33 6.93 0.43 6.84 C0.52 6.76 0.68 6.7 0.9 6.67 C1.12 6.64 1.41 6.62 1.78 6.62 C2.11 6.62 2.38 6.63 2.57 6.64 C2.77 6.65 2.92 6.68 3.03 6.73 C3.14 6.78 3.22 6.85 3.27 6.95 C3.33 7.05 3.38 7.19 3.44 7.37 L5.9 14.4 L5.94 14.4 L8.19 7.22 C8.23 7.02 8.3 6.89 8.37 6.82 C8.44 6.75 8.57 6.7 8.74 6.67 C8.92 6.64 9.22 6.62 9.65 6.62 C9.99 6.62 10.28 6.64 10.5 6.67 C10.73 6.7 10.89 6.76 11 6.85 C11.1 6.94 11.16 7.05 11.16 7.2 C11.16 7.34 11.12 7.51 11.06 7.71 Z"/>
      <path fill="#0c9a56" d="M22.25 12.07 C22.25 12.43 22.17 12.7 22.01 12.87 C21.85 13.04 21.63 13.12 21.35 13.12 L15 13.12 C15 13.56 15.05 13.96 15.16 14.32 C15.26 14.68 15.43 14.98 15.66 15.23 C15.89 15.48 16.18 15.67 16.55 15.8 C16.91 15.93 17.34 16 17.85 16 C18.36 16 18.82 15.96 19.2 15.88 C19.59 15.8 19.93 15.72 20.21 15.62 C20.5 15.53 20.73 15.45 20.92 15.37 C21.11 15.29 21.26 15.25 21.38 15.25 C21.45 15.25 21.5 15.26 21.55 15.29 C21.6 15.32 21.64 15.37 21.67 15.44 C21.7 15.51 21.72 15.62 21.73 15.75 C21.74 15.88 21.75 16.05 21.75 16.25 C21.75 16.43 21.75 16.58 21.74 16.7 C21.73 16.82 21.72 16.93 21.7 17.02 C21.69 17.11 21.66 17.18 21.63 17.24 C21.6 17.3 21.56 17.36 21.51 17.42 C21.46 17.47 21.32 17.55 21.09 17.64 C20.87 17.73 20.58 17.83 20.23 17.92 C19.88 18.01 19.48 18.08 19.03 18.15 C18.57 18.22 18.09 18.25 17.58 18.25 C16.65 18.25 15.84 18.13 15.14 17.9 C14.44 17.67 13.86 17.31 13.39 16.84 C12.92 16.36 12.57 15.76 12.34 15.04 C12.11 14.31 12 13.46 12 12.49 C12 11.57 12.12 10.73 12.36 9.99 C12.6 9.24 12.95 8.61 13.41 8.09 C13.88 7.58 14.44 7.18 15.09 6.91 C15.75 6.64 16.5 6.5 17.32 6.5 C18.2 6.5 18.94 6.63 19.56 6.89 C20.18 7.14 20.69 7.5 21.09 7.95 C21.49 8.41 21.78 8.95 21.97 9.57 C22.16 10.2 22.25 10.87 22.25 11.61 Z M19.37 11.25 C19.4 10.43 19.23 9.79 18.88 9.32 C18.53 8.86 17.98 8.62 17.25 8.62 C16.87 8.62 16.55 8.69 16.27 8.83 C16 8.97 15.77 9.16 15.59 9.39 C15.41 9.63 15.27 9.91 15.17 10.23 C15.07 10.55 15.02 10.89 15 11.25 Z"/>
      <path fill="#0c9a56" d="M33.62 17.69 C33.62 17.8 33.59 17.89 33.51 17.95 C33.43 18.01 33.31 18.06 33.14 18.08 C32.97 18.11 32.73 18.12 32.4 18.12 C32.05 18.12 31.8 18.11 31.64 18.08 C31.48 18.06 31.37 18.01 31.3 17.95 C31.24 17.89 31.2 17.8 31.2 17.69 L31.2 16.86 C30.78 17.32 30.29 17.67 29.74 17.9 C29.19 18.13 28.58 18.25 27.91 18.25 C27.36 18.25 26.85 18.18 26.39 18.03 C25.93 17.89 25.53 17.67 25.19 17.38 C24.85 17.1 24.59 16.74 24.41 16.32 C24.22 15.89 24.12 15.4 24.12 14.83 C24.12 14.22 24.24 13.69 24.48 13.24 C24.72 12.78 25.07 12.41 25.54 12.12 C26.01 11.82 26.6 11.6 27.3 11.46 C28 11.32 28.81 11.25 29.73 11.25 L30.75 11.25 L30.75 10.64 C30.75 10.32 30.72 10.05 30.65 9.81 C30.59 9.57 30.48 9.37 30.33 9.21 C30.18 9.06 29.98 8.94 29.73 8.86 C29.48 8.79 29.17 8.75 28.8 8.75 C28.31 8.75 27.88 8.8 27.5 8.91 C27.11 9.01 26.78 9.12 26.48 9.25 C26.19 9.38 25.95 9.49 25.75 9.59 C25.55 9.7 25.39 9.75 25.27 9.75 C25.18 9.75 25.11 9.72 25.04 9.67 C24.98 9.62 24.93 9.54 24.88 9.44 C24.84 9.34 24.81 9.22 24.79 9.08 C24.76 8.93 24.75 8.77 24.75 8.6 C24.75 8.36 24.77 8.17 24.81 8.04 C24.85 7.9 24.92 7.78 25.03 7.67 C25.14 7.56 25.32 7.43 25.6 7.29 C25.87 7.15 26.18 7.02 26.55 6.91 C26.91 6.79 27.3 6.69 27.73 6.61 C28.16 6.54 28.6 6.5 29.06 6.5 C29.87 6.5 30.57 6.58 31.14 6.74 C31.72 6.9 32.19 7.15 32.56 7.48 C32.93 7.81 33.2 8.24 33.37 8.77 C33.54 9.29 33.62 9.92 33.62 10.64 Z M30.75 13.12 L29.63 13.12 C29.16 13.12 28.75 13.16 28.42 13.23 C28.09 13.3 27.82 13.4 27.61 13.54 C27.4 13.68 27.24 13.85 27.15 14.05 C27.05 14.25 27 14.47 27 14.73 C27 15.16 27.14 15.5 27.41 15.75 C27.69 16 28.07 16.12 28.56 16.12 C28.97 16.12 29.35 16.02 29.7 15.81 C30.04 15.6 30.39 15.3 30.75 14.89 Z"/>
      <path fill="#0c9a56" d="M43.37 8.13 C43.37 8.41 43.37 8.64 43.35 8.82 C43.34 9 43.31 9.14 43.28 9.24 C43.25 9.34 43.21 9.41 43.16 9.45 C43.11 9.49 43.04 9.51 42.97 9.51 C42.9 9.51 42.83 9.49 42.76 9.47 C42.68 9.44 42.59 9.41 42.49 9.38 C42.4 9.35 42.29 9.32 42.17 9.29 C42.05 9.26 41.93 9.25 41.79 9.25 C41.62 9.25 41.46 9.28 41.3 9.35 C41.13 9.41 40.96 9.52 40.79 9.66 C40.61 9.8 40.43 9.98 40.24 10.21 C40.05 10.45 39.84 10.73 39.62 11.07 L39.62 17.65 C39.62 17.73 39.6 17.8 39.55 17.86 C39.51 17.92 39.42 17.97 39.31 18.01 C39.19 18.05 39.04 18.08 38.85 18.1 C38.66 18.12 38.42 18.12 38.12 18.12 C37.83 18.12 37.59 18.12 37.4 18.1 C37.21 18.08 37.06 18.05 36.94 18.01 C36.83 17.97 36.74 17.92 36.7 17.86 C36.65 17.8 36.62 17.73 36.62 17.65 L36.62 7.1 C36.62 7.02 36.64 6.95 36.68 6.89 C36.72 6.83 36.8 6.78 36.9 6.74 C37 6.7 37.13 6.67 37.3 6.65 C37.46 6.63 37.66 6.62 37.91 6.62 C38.16 6.62 38.37 6.63 38.54 6.65 C38.71 6.67 38.84 6.7 38.93 6.74 C39.02 6.78 39.08 6.83 39.12 6.89 C39.16 6.95 39.18 7.02 39.18 7.1 L39.18 8.41 C39.46 8.03 39.71 7.72 39.96 7.47 C40.2 7.23 40.43 7.03 40.65 6.89 C40.87 6.74 41.08 6.64 41.3 6.58 C41.52 6.53 41.74 6.5 41.96 6.5 C42.06 6.5 42.17 6.51 42.29 6.52 C42.4 6.53 42.52 6.55 42.65 6.58 C42.77 6.6 42.88 6.63 42.98 6.67 C43.07 6.7 43.14 6.74 43.18 6.78 C43.22 6.82 43.26 6.86 43.28 6.91 C43.29 6.95 43.31 7.02 43.33 7.1 C43.34 7.18 43.36 7.3 43.36 7.47 C43.37 7.63 43.37 7.85 43.37 8.13 Z"/>
      <path fill="#0c9a56" d="M52.25 14.64 C52.25 15.23 52.14 15.75 51.91 16.21 C51.69 16.66 51.38 17.03 50.97 17.34 C50.56 17.64 50.08 17.87 49.53 18.02 C48.97 18.17 48.37 18.25 47.71 18.25 C47.32 18.25 46.95 18.22 46.59 18.16 C46.24 18.1 45.92 18.02 45.64 17.93 C45.35 17.84 45.12 17.74 44.93 17.65 C44.74 17.55 44.61 17.46 44.52 17.38 C44.43 17.29 44.37 17.16 44.32 16.99 C44.27 16.81 44.25 16.55 44.25 16.2 C44.25 15.98 44.26 15.8 44.27 15.66 C44.29 15.52 44.31 15.41 44.34 15.33 C44.37 15.25 44.41 15.19 44.46 15.17 C44.51 15.14 44.57 15.12 44.64 15.12 C44.72 15.12 44.85 15.18 45.02 15.28 C45.19 15.38 45.4 15.5 45.65 15.62 C45.9 15.74 46.19 15.86 46.52 15.96 C46.86 16.07 47.23 16.12 47.66 16.12 C47.93 16.12 48.16 16.1 48.37 16.04 C48.58 15.99 48.76 15.91 48.91 15.81 C49.06 15.7 49.18 15.57 49.26 15.42 C49.34 15.26 49.37 15.08 49.37 14.87 C49.37 14.64 49.3 14.44 49.16 14.27 C49.01 14.11 48.81 13.96 48.57 13.83 C48.33 13.71 48.06 13.59 47.75 13.49 C47.45 13.38 47.13 13.26 46.81 13.12 C46.49 12.99 46.18 12.84 45.87 12.67 C45.57 12.5 45.29 12.29 45.05 12.04 C44.81 11.79 44.62 11.49 44.47 11.14 C44.32 10.79 44.25 10.37 44.25 9.87 C44.25 9.38 44.35 8.92 44.54 8.5 C44.74 8.09 45.02 7.73 45.39 7.43 C45.76 7.14 46.21 6.91 46.74 6.75 C47.27 6.58 47.87 6.5 48.53 6.5 C48.86 6.5 49.18 6.52 49.49 6.57 C49.8 6.61 50.08 6.67 50.33 6.74 C50.58 6.81 50.79 6.88 50.97 6.96 C51.14 7.04 51.26 7.11 51.34 7.16 C51.41 7.22 51.46 7.28 51.5 7.34 C51.53 7.4 51.55 7.47 51.57 7.55 C51.58 7.64 51.6 7.74 51.61 7.87 C51.62 7.99 51.62 8.14 51.62 8.32 C51.62 8.54 51.62 8.71 51.61 8.85 C51.6 8.98 51.58 9.09 51.55 9.17 C51.52 9.25 51.48 9.3 51.43 9.33 C51.39 9.36 51.33 9.37 51.27 9.37 C51.2 9.37 51.09 9.34 50.94 9.26 C50.78 9.18 50.6 9.09 50.37 9 C50.14 8.91 49.88 8.82 49.59 8.74 C49.29 8.66 48.95 8.62 48.57 8.62 C48.3 8.62 48.07 8.65 47.87 8.7 C47.67 8.76 47.51 8.83 47.38 8.93 C47.25 9.02 47.16 9.14 47.09 9.27 C47.03 9.4 47 9.54 47 9.69 C47 9.93 47.08 10.13 47.23 10.3 C47.38 10.46 47.58 10.61 47.83 10.73 C48.07 10.85 48.35 10.97 48.67 11.08 C48.98 11.19 49.3 11.31 49.62 11.44 C49.95 11.56 50.27 11.71 50.58 11.89 C50.9 12.06 51.18 12.27 51.42 12.52 C51.67 12.76 51.87 13.06 52.02 13.41 C52.17 13.76 52.25 14.17 52.25 14.64 Z"/>
    </g>
    <path transform="matrix(0.540095 0 0 0.516129 29.958906 26.774195)" fill="#0c9a56" d="M19.32 65.45 C18.85 65.45 18.47 65.3 18.17 64.99 C17.86 64.69 17.71 64.3 17.71 63.84 L17.71 24.64 L6.09 33.6 C5.72 33.88 5.32 34 4.9 33.95 C4.48 33.9 4.13 33.69 3.85 33.32 L2.03 31.01 C1.75 30.59 1.65 30.17 1.71 29.75 C1.78 29.33 2.01 28.98 2.38 28.7 L17.64 16.94 C17.97 16.71 18.27 16.57 18.55 16.52 C18.83 16.47 19.13 16.45 19.46 16.45 L23.03 16.45 C23.5 16.45 23.88 16.6 24.18 16.9 C24.49 17.21 24.64 17.59 24.64 18.06 L24.64 63.84 C24.64 64.3 24.49 64.69 24.18 64.99 C23.88 65.3 23.5 65.45 23.03 65.45 Z M52.19 66.15 C48.97 66.15 46.25 65.65 44.03 64.64 C41.82 63.64 40.01 62.25 38.61 60.48 C37.21 58.71 36.2 56.68 35.57 54.39 C34.94 52.1 34.57 49.68 34.48 47.11 C34.43 45.85 34.4 44.52 34.37 43.12 C34.35 41.72 34.35 40.29 34.37 38.85 C34.4 37.4 34.43 36.03 34.48 34.72 C34.53 32.16 34.89 29.73 35.57 27.44 C36.24 25.16 37.28 23.14 38.68 21.39 C40.08 19.64 41.89 18.26 44.1 17.26 C46.32 16.25 49.02 15.75 52.19 15.75 C55.41 15.75 58.13 16.25 60.35 17.26 C62.56 18.26 64.37 19.64 65.77 21.39 C67.17 23.14 68.21 25.16 68.88 27.44 C69.56 29.73 69.92 32.16 69.97 34.72 C70.02 36.03 70.05 37.4 70.08 38.85 C70.1 40.29 70.1 41.72 70.08 43.12 C70.05 44.52 70.02 45.85 69.97 47.11 C69.92 49.68 69.56 52.1 68.88 54.39 C68.21 56.68 67.18 58.71 65.81 60.48 C64.43 62.25 62.63 63.64 60.41 64.64 C58.2 65.65 55.45 66.15 52.19 66.15 Z M52.19 60.13 C55.83 60.13 58.53 58.94 60.27 56.56 C62.02 54.18 62.92 50.91 62.97 46.76 C63.06 45.41 63.11 44.09 63.11 42.81 C63.11 41.52 63.11 40.24 63.11 38.95 C63.11 37.67 63.06 36.4 62.97 35.14 C62.92 31.08 62.02 27.82 60.27 25.37 C58.53 22.92 55.83 21.7 52.19 21.7 C48.6 21.7 45.92 22.92 44.18 25.37 C42.43 27.82 41.51 31.08 41.41 35.14 C41.41 36.4 41.4 37.67 41.38 38.95 C41.35 40.24 41.35 41.52 41.38 42.81 C41.4 44.09 41.41 45.41 41.41 46.76 C41.51 50.91 42.44 54.18 44.21 56.56 C45.98 58.94 48.64 60.13 52.19 60.13 Z"/>
  </g>
</svg>
