<?xml version="1.0" encoding="UTF-8" standalone="no"?>
<!-- Created with PhotoLine 25.00 (www.pl32.com) -->
<!DOCTYPE svg PUBLIC "-//W3C//DTD SVG 1.1//EN" "http://www.w3.org/Graphics/SVG/1.1/DTD/svg11.dtd">
<svg width="102" height="102" viewBox="0 0 102 102" version="1.1" xmlns="http://www.w3.org/2000/svg" xmlns:xlink="http://www.w3.org/1999/xlink">
  <g id="Circle/Ellipse" transform="matrix(1.886792 0 0 3.125 -50 -76.5625)">
    <path fill="#f2f3f3" fill-rule="evenodd" d="M26.5 40.5 C26.5 31.67 38.38 24.5 53 24.5 C67.62 24.5 79.5 31.67 79.5 40.5 C79.5 49.33 67.62 56.5 53 56.5 C38.38 56.5 26.5 49.33 26.5 40.5 Z"/>
  </g>
  <g id="Circle/Ellipse" transform="matrix(1.886792 0 0 3.125 -50 -76.5625)">
    <path fill="#f2f3f3" fill-rule="evenodd" d="M26.5 40.5 C26.5 31.67 38.38 24.5 53 24.5 C67.62 24.5 79.5 31.67 79.5 40.5 C79.5 49.33 67.62 56.5 53 56.5 C38.38 56.5 26.5 49.33 26.5 40.5 Z"/>
  </g>
  <g transform="matrix(1 0 0 1 19.125 8.625001)">
    <path fill="#0c9a56" d="M18.12 17.65 C18.12 17.73 18.1 17.8 18.05 17.86 C18.01 17.92 17.93 17.97 17.81 18.01 C17.7 18.05 17.55 18.08 17.36 18.1 C17.17 18.12 16.93 18.12 16.63 18.12 C16.33 18.12 16.08 18.12 15.89 18.1 C15.7 18.08 15.55 18.05 15.43 18.01 C15.31 17.97 15.23 17.92 15.19 17.86 C15.15 17.8 15.12 17.73 15.12 17.66 L15.12 11.47 C15.12 11.12 15.09 10.8 15.03 10.52 C14.97 10.23 14.87 9.98 14.74 9.77 C14.6 9.57 14.44 9.41 14.24 9.29 C14.04 9.18 13.8 9.12 13.53 9.12 C13.19 9.12 12.85 9.26 12.5 9.53 C12.16 9.81 11.78 10.2 11.37 10.73 L11.37 17.66 C11.37 17.73 11.35 17.8 11.3 17.86 C11.26 17.92 11.17 17.97 11.06 18.01 C10.94 18.05 10.79 18.08 10.6 18.1 C10.41 18.12 10.17 18.12 9.88 18.12 C9.59 18.12 9.34 18.12 9.15 18.1 C8.96 18.08 8.81 18.05 8.69 18.01 C8.58 17.97 8.49 17.92 8.45 17.86 C8.4 17.8 8.37 17.73 8.37 17.66 L8.37 11.47 C8.37 11.12 8.34 10.8 8.28 10.52 C8.21 10.23 8.11 9.98 7.98 9.77 C7.85 9.57 7.67 9.41 7.46 9.29 C7.26 9.18 7.01 9.12 6.73 9.12 C6.37 9.12 6.01 9.26 5.66 9.53 C5.3 9.81 4.91 10.2 4.5 10.73 L4.5 17.66 C4.5 17.73 4.48 17.8 4.43 17.86 C4.38 17.92 4.3 17.97 4.18 18.01 C4.07 18.05 3.92 18.08 3.73 18.1 C3.54 18.12 3.29 18.12 3 18.12 C2.71 18.12 2.46 18.12 2.27 18.1 C2.08 18.08 1.93 18.05 1.82 18.01 C1.7 17.97 1.62 17.92 1.57 17.86 C1.52 17.8 1.5 17.73 1.5 17.65 L1.5 7.1 C1.5 7.02 1.52 6.95 1.56 6.89 C1.6 6.83 1.67 6.78 1.77 6.74 C1.88 6.7 2.01 6.67 2.17 6.65 C2.33 6.63 2.54 6.62 2.79 6.62 C3.04 6.62 3.25 6.63 3.42 6.65 C3.58 6.67 3.71 6.7 3.8 6.74 C3.89 6.78 3.96 6.83 4 6.89 C4.04 6.95 4.06 7.02 4.06 7.1 L4.06 8.32 C4.64 7.71 5.22 7.26 5.8 6.95 C6.38 6.65 6.98 6.5 7.61 6.5 C8.04 6.5 8.43 6.54 8.77 6.63 C9.12 6.72 9.43 6.84 9.7 7.01 C9.97 7.17 10.21 7.36 10.4 7.59 C10.6 7.82 10.76 8.07 10.9 8.35 C11.2 8.03 11.51 7.75 11.81 7.51 C12.1 7.28 12.4 7.08 12.69 6.94 C12.98 6.79 13.27 6.68 13.56 6.61 C13.85 6.54 14.14 6.5 14.44 6.5 C15.13 6.5 15.71 6.62 16.18 6.85 C16.65 7.09 17.03 7.41 17.32 7.81 C17.61 8.21 17.82 8.69 17.94 9.23 C18.06 9.77 18.12 10.34 18.12 10.94 Z"/>
    <path fill="#0c9a56" d="M29.87 17.69 C29.87 17.8 29.84 17.89 29.76 17.95 C29.68 18.01 29.56 18.06 29.39 18.08 C29.22 18.11 28.98 18.12 28.65 18.12 C28.3 18.12 28.05 18.11 27.89 18.08 C27.73 18.06 27.62 18.01 27.55 17.95 C27.49 17.89 27.45 17.8 27.45 17.69 L27.45 16.86 C27.03 17.32 26.54 17.67 25.99 17.9 C25.44 18.13 24.83 18.25 24.16 18.25 C23.61 18.25 23.1 18.18 22.64 18.03 C22.18 17.89 21.78 17.67 21.44 17.38 C21.1 17.1 20.84 16.74 20.66 16.32 C20.47 15.89 20.37 15.4 20.37 14.83 C20.37 14.22 20.49 13.69 20.73 13.24 C20.97 12.78 21.32 12.41 21.79 12.12 C22.26 11.82 22.85 11.6 23.55 11.46 C24.25 11.32 25.06 11.25 25.98 11.25 L27 11.25 L27 10.64 C27 10.32 26.97 10.05 26.9 9.81 C26.84 9.57 26.73 9.37 26.58 9.21 C26.43 9.06 26.23 8.94 25.98 8.86 C25.73 8.79 25.42 8.75 25.05 8.75 C24.56 8.75 24.13 8.8 23.75 8.91 C23.36 9.01 23.03 9.12 22.73 9.25 C22.44 9.38 22.2 9.49 22 9.59 C21.8 9.7 21.64 9.75 21.52 9.75 C21.43 9.75 21.36 9.72 21.29 9.67 C21.23 9.62 21.18 9.54 21.13 9.44 C21.09 9.34 21.06 9.22 21.04 9.08 C21.01 8.93 21 8.77 21 8.6 C21 8.36 21.02 8.17 21.06 8.04 C21.1 7.9 21.17 7.78 21.28 7.67 C21.39 7.56 21.57 7.43 21.85 7.29 C22.12 7.15 22.43 7.02 22.8 6.91 C23.16 6.79 23.55 6.69 23.98 6.61 C24.41 6.54 24.85 6.5 25.31 6.5 C26.12 6.5 26.82 6.58 27.39 6.74 C27.97 6.9 28.44 7.15 28.81 7.48 C29.18 7.81 29.45 8.24 29.62 8.77 C29.79 9.29 29.87 9.92 29.87 10.64 Z M27 13.12 L25.88 13.12 C25.41 13.12 25 13.16 24.67 13.23 C24.34 13.3 24.07 13.4 23.86 13.54 C23.65 13.68 23.49 13.85 23.4 14.05 C23.3 14.25 23.25 14.47 23.25 14.73 C23.25 15.16 23.39 15.5 23.66 15.75 C23.94 16 24.32 16.12 24.81 16.12 C25.22 16.12 25.6 16.02 25.95 15.81 C26.29 15.6 26.64 15.3 27 14.89 Z"/>
    <path fill="#0c9a56" d="M49.5 17.65 C49.5 17.73 49.48 17.8 49.43 17.86 C49.38 17.92 49.3 17.97 49.19 18.01 C49.08 18.05 48.93 18.08 48.73 18.1 C48.54 18.12 48.3 18.12 48.01 18.12 C47.7 18.12 47.46 18.12 47.27 18.1 C47.07 18.08 46.92 18.05 46.8 18.01 C46.69 17.97 46.61 17.92 46.57 17.86 C46.52 17.8 46.5 17.73 46.5 17.66 L46.5 11.47 C46.5 11.12 46.47 10.8 46.4 10.52 C46.34 10.23 46.24 9.98 46.11 9.77 C45.98 9.57 45.81 9.41 45.62 9.29 C45.42 9.18 45.18 9.12 44.9 9.12 C44.56 9.12 44.22 9.26 43.88 9.53 C43.53 9.81 43.15 10.2 42.75 10.73 L42.75 17.66 C42.75 17.73 42.73 17.8 42.68 17.86 C42.63 17.92 42.55 17.97 42.43 18.01 C42.32 18.05 42.16 18.08 41.97 18.1 C41.78 18.12 41.54 18.12 41.26 18.12 C40.96 18.12 40.72 18.12 40.53 18.1 C40.34 18.08 40.18 18.05 40.07 18.01 C39.95 17.97 39.87 17.92 39.82 17.86 C39.77 17.8 39.75 17.73 39.75 17.66 L39.75 11.47 C39.75 11.12 39.72 10.8 39.65 10.52 C39.58 10.23 39.48 9.98 39.35 9.77 C39.22 9.57 39.05 9.41 38.84 9.29 C38.63 9.18 38.38 9.12 38.1 9.12 C37.75 9.12 37.39 9.26 37.03 9.53 C36.67 9.81 36.29 10.2 35.87 10.73 L35.87 17.66 C35.87 17.73 35.85 17.8 35.8 17.86 C35.76 17.92 35.67 17.97 35.56 18.01 C35.44 18.05 35.29 18.08 35.1 18.1 C34.91 18.12 34.67 18.12 34.37 18.12 C34.08 18.12 33.84 18.12 33.65 18.1 C33.46 18.08 33.31 18.05 33.19 18.01 C33.08 17.97 32.99 17.92 32.95 17.86 C32.9 17.8 32.87 17.73 32.87 17.65 L32.87 7.1 C32.87 7.02 32.89 6.95 32.93 6.89 C32.97 6.83 33.05 6.78 33.15 6.74 C33.25 6.7 33.38 6.67 33.55 6.65 C33.71 6.63 33.91 6.62 34.16 6.62 C34.41 6.62 34.62 6.63 34.79 6.65 C34.96 6.67 35.09 6.7 35.18 6.74 C35.27 6.78 35.33 6.83 35.37 6.89 C35.41 6.95 35.43 7.02 35.43 7.1 L35.43 8.32 C36.02 7.71 36.6 7.26 37.17 6.95 C37.75 6.65 38.35 6.5 38.98 6.5 C39.41 6.5 39.8 6.54 40.15 6.63 C40.5 6.72 40.8 6.84 41.08 7.01 C41.35 7.17 41.58 7.36 41.78 7.59 C41.97 7.82 42.14 8.07 42.27 8.35 C42.58 8.03 42.88 7.75 43.18 7.51 C43.48 7.28 43.77 7.08 44.06 6.94 C44.35 6.79 44.64 6.68 44.93 6.61 C45.22 6.54 45.52 6.5 45.82 6.5 C46.5 6.5 47.08 6.62 47.55 6.85 C48.02 7.09 48.4 7.41 48.69 7.81 C48.98 8.21 49.19 8.69 49.31 9.23 C49.44 9.77 49.5 10.34 49.5 10.94 Z"/>
    <path fill="#0c9a56" d="M58.06 18 L56.87 21.7 C56.8 21.89 56.61 22.04 56.29 22.12 C55.97 22.21 55.51 22.25 54.9 22.25 C54.58 22.25 54.33 22.24 54.14 22.21 C53.95 22.18 53.8 22.14 53.71 22.07 C53.61 22.01 53.56 21.93 53.55 21.84 C53.55 21.75 53.57 21.63 53.62 21.5 L54.99 18 C54.88 17.95 54.79 17.88 54.71 17.78 C54.63 17.68 54.57 17.58 54.53 17.47 L50.94 7.81 C50.84 7.54 50.79 7.33 50.79 7.18 C50.79 7.04 50.83 6.93 50.93 6.84 C51.02 6.76 51.18 6.7 51.4 6.67 C51.62 6.64 51.91 6.62 52.28 6.62 C52.61 6.62 52.88 6.63 53.07 6.64 C53.27 6.65 53.42 6.68 53.53 6.73 C53.64 6.78 53.72 6.85 53.77 6.95 C53.83 7.05 53.88 7.19 53.94 7.37 L56.4 14.4 L56.44 14.4 L58.69 7.22 C58.73 7.02 58.8 6.89 58.87 6.82 C58.94 6.75 59.07 6.7 59.24 6.67 C59.42 6.64 59.72 6.62 60.15 6.62 C60.49 6.62 60.78 6.64 61 6.67 C61.23 6.7 61.39 6.76 61.5 6.85 C61.6 6.94 61.66 7.05 61.66 7.2 C61.66 7.34 61.62 7.51 61.56 7.71 Z"/>
  </g>
  <path transform="matrix(0.586706 0 0 0.525761 28.083666 28.59557)" fill="#0c9a56" d="M19.32 65.45 C18.85 65.45 18.47 65.3 18.17 64.99 C17.86 64.69 17.71 64.3 17.71 63.84 L17.71 24.64 L6.09 33.6 C5.72 33.88 5.32 34 4.9 33.95 C4.48 33.9 4.13 33.69 3.85 33.32 L2.03 31.01 C1.75 30.59 1.65 30.17 1.71 29.75 C1.78 29.33 2.01 28.98 2.38 28.7 L17.64 16.94 C17.97 16.71 18.27 16.57 18.55 16.52 C18.83 16.47 19.13 16.45 19.46 16.45 L23.03 16.45 C23.5 16.45 23.88 16.6 24.18 16.9 C24.49 17.21 24.64 17.59 24.64 18.06 L24.64 63.84 C24.64 64.3 24.49 64.69 24.18 64.99 C23.88 65.3 23.5 65.45 23.03 65.45 Z M52.19 66.15 C48.97 66.15 46.25 65.65 44.03 64.64 C41.82 63.64 40.01 62.25 38.61 60.48 C37.21 58.71 36.2 56.68 35.57 54.39 C34.94 52.1 34.57 49.68 34.48 47.11 C34.43 45.85 34.4 44.52 34.37 43.12 C34.35 41.72 34.35 40.29 34.37 38.85 C34.4 37.4 34.43 36.03 34.48 34.72 C34.53 32.16 34.89 29.73 35.57 27.44 C36.24 25.16 37.28 23.14 38.68 21.39 C40.08 19.64 41.89 18.26 44.1 17.26 C46.32 16.25 49.02 15.75 52.19 15.75 C55.41 15.75 58.13 16.25 60.35 17.26 C62.56 18.26 64.37 19.64 65.77 21.39 C67.17 23.14 68.21 25.16 68.88 27.44 C69.56 29.73 69.92 32.16 69.97 34.72 C70.02 36.03 70.05 37.4 70.08 38.85 C70.1 40.29 70.1 41.72 70.08 43.12 C70.05 44.52 70.02 45.85 69.97 47.11 C69.92 49.68 69.56 52.1 68.88 54.39 C68.21 56.68 67.18 58.71 65.81 60.48 C64.43 62.25 62.63 63.64 60.41 64.64 C58.2 65.65 55.45 66.15 52.19 66.15 Z M52.19 60.13 C55.83 60.13 58.53 58.94 60.27 56.56 C62.02 54.18 62.92 50.91 62.97 46.76 C63.06 45.41 63.11 44.09 63.11 42.81 C63.11 41.52 63.11 40.24 63.11 38.95 C63.11 37.67 63.06 36.4 62.97 35.14 C62.92 31.08 62.02 27.82 60.27 25.37 C58.53 22.92 55.83 21.7 52.19 21.7 C48.6 21.7 45.92 22.92 44.18 25.37 C42.43 27.82 41.51 31.08 41.41 35.14 C41.41 36.4 41.4 37.67 41.38 38.95 C41.35 40.24 41.35 41.52 41.38 42.81 C41.4 44.09 41.41 45.41 41.41 46.76 C41.51 50.91 42.44 54.18 44.21 56.56 C45.98 58.94 48.64 60.13 52.19 60.13 Z"/>
  <g transform="matrix(1 0 0 1 36.875 67.125)">
    <path fill="#0c9a56" d="M4.87 19.13 C4.87 19.21 4.85 19.29 4.8 19.35 C4.75 19.41 4.66 19.47 4.53 19.51 C4.41 19.55 4.24 19.58 4.04 19.6 C3.83 19.62 3.57 19.64 3.25 19.64 C2.93 19.64 2.67 19.62 2.46 19.6 C2.26 19.58 2.09 19.55 1.97 19.51 C1.84 19.47 1.75 19.41 1.7 19.35 C1.65 19.29 1.62 19.21 1.62 19.13 L1.62 2.44 C1.62 2.36 1.65 2.28 1.7 2.21 C1.75 2.15 1.84 2.09 1.97 2.04 C2.09 2 2.26 1.96 2.46 1.93 C2.67 1.91 2.93 1.9 3.25 1.9 C3.57 1.9 3.83 1.91 4.04 1.93 C4.24 1.96 4.41 2 4.53 2.04 C4.66 2.09 4.75 2.15 4.8 2.21 C4.85 2.28 4.87 2.36 4.87 2.44 Z"/>
    <path fill="#0c9a56" d="M17.6 19.16 C17.6 19.28 17.56 19.38 17.48 19.44 C17.39 19.51 17.26 19.56 17.08 19.59 C16.9 19.62 16.63 19.64 16.28 19.64 C15.9 19.64 15.63 19.62 15.45 19.59 C15.28 19.56 15.16 19.51 15.09 19.44 C15.02 19.38 14.98 19.28 14.98 19.17 L14.98 18.26 C14.52 18.76 13.99 19.14 13.4 19.39 C12.8 19.64 12.14 19.77 11.42 19.77 C10.82 19.77 10.27 19.69 9.77 19.53 C9.27 19.38 8.83 19.14 8.47 18.83 C8.1 18.52 7.82 18.14 7.62 17.68 C7.41 17.22 7.31 16.68 7.31 16.07 C7.31 15.4 7.44 14.83 7.7 14.34 C7.95 13.85 8.34 13.45 8.85 13.13 C9.36 12.81 9.99 12.57 10.75 12.42 C11.51 12.26 12.39 12.19 13.39 12.19 L14.49 12.19 L14.49 11.53 C14.49 11.18 14.45 10.88 14.38 10.62 C14.31 10.37 14.19 10.15 14.03 9.98 C13.87 9.81 13.65 9.68 13.38 9.6 C13.11 9.52 12.77 9.48 12.37 9.48 C11.85 9.48 11.38 9.54 10.96 9.65 C10.55 9.76 10.19 9.88 9.87 10.02 C9.55 10.16 9.29 10.28 9.07 10.39 C8.86 10.51 8.69 10.56 8.55 10.56 C8.46 10.56 8.38 10.53 8.31 10.48 C8.24 10.42 8.18 10.34 8.13 10.23 C8.09 10.12 8.05 9.99 8.03 9.83 C8 9.68 7.99 9.5 7.99 9.31 C7.99 9.06 8.01 8.85 8.05 8.71 C8.09 8.56 8.17 8.42 8.29 8.3 C8.41 8.18 8.61 8.05 8.91 7.9 C9.2 7.75 9.54 7.61 9.94 7.48 C10.33 7.35 10.76 7.25 11.22 7.16 C11.69 7.08 12.17 7.04 12.66 7.04 C13.54 7.04 14.29 7.13 14.91 7.3 C15.54 7.48 16.05 7.74 16.45 8.1 C16.85 8.47 17.14 8.93 17.33 9.5 C17.51 10.07 17.6 10.74 17.6 11.52 Z M14.49 14.22 L13.28 14.22 C12.77 14.22 12.33 14.26 11.97 14.33 C11.6 14.41 11.31 14.52 11.08 14.67 C10.86 14.82 10.69 15.01 10.58 15.22 C10.48 15.43 10.43 15.68 10.43 15.96 C10.43 16.43 10.58 16.8 10.87 17.07 C11.17 17.33 11.59 17.47 12.12 17.47 C12.56 17.47 12.97 17.36 13.35 17.13 C13.72 16.9 14.1 16.57 14.49 16.13 Z"/>
    <path fill="#0c9a56" d="M27.35 17.95 C27.35 18.32 27.33 18.61 27.28 18.81 C27.24 19.02 27.17 19.16 27.1 19.24 C27.02 19.32 26.91 19.39 26.76 19.46 C26.61 19.52 26.43 19.58 26.23 19.62 C26.03 19.67 25.81 19.71 25.57 19.73 C25.34 19.76 25.1 19.77 24.86 19.77 C24.22 19.77 23.66 19.69 23.19 19.53 C22.72 19.37 22.33 19.12 22.02 18.78 C21.71 18.45 21.49 18.03 21.34 17.52 C21.2 17.01 21.12 16.4 21.12 15.71 L21.12 9.89 L19.73 9.89 C19.57 9.89 19.45 9.79 19.36 9.59 C19.27 9.39 19.23 9.06 19.23 8.6 C19.23 8.35 19.24 8.15 19.26 7.98 C19.28 7.81 19.32 7.68 19.36 7.58 C19.4 7.49 19.46 7.42 19.52 7.38 C19.59 7.33 19.66 7.31 19.75 7.31 L21.12 7.31 L21.12 4.74 C21.12 4.65 21.15 4.58 21.2 4.51 C21.24 4.44 21.33 4.38 21.45 4.33 C21.58 4.29 21.75 4.25 21.96 4.23 C22.17 4.21 22.43 4.2 22.74 4.2 C23.06 4.2 23.33 4.21 23.54 4.23 C23.75 4.25 23.92 4.29 24.04 4.33 C24.16 4.38 24.25 4.44 24.3 4.51 C24.35 4.58 24.37 4.65 24.37 4.74 L24.37 7.31 L26.84 7.31 C26.93 7.31 27 7.33 27.07 7.38 C27.13 7.42 27.18 7.49 27.23 7.58 C27.27 7.68 27.3 7.81 27.32 7.98 C27.34 8.15 27.35 8.35 27.35 8.6 C27.35 9.06 27.31 9.39 27.23 9.59 C27.14 9.79 27.02 9.89 26.86 9.89 L24.37 9.89 L24.37 15.21 C24.37 15.83 24.47 16.29 24.67 16.6 C24.86 16.91 25.21 17.06 25.71 17.06 C25.88 17.06 26.03 17.05 26.17 17.02 C26.31 16.99 26.43 16.95 26.53 16.92 C26.64 16.88 26.73 16.84 26.8 16.81 C26.87 16.79 26.94 16.77 27 16.77 C27.05 16.77 27.1 16.79 27.14 16.81 C27.19 16.84 27.23 16.9 27.25 16.99 C27.28 17.08 27.3 17.2 27.32 17.36 C27.34 17.51 27.35 17.71 27.35 17.95 Z"/>
  </g>
</svg>
