<?xml version="1.0" encoding="UTF-8" standalone="no"?>
<!-- Created with PhotoLine 25.00 (www.pl32.com) -->
<!DOCTYPE svg PUBLIC "-//W3C//DTD SVG 1.1//EN" "http://www.w3.org/Graphics/SVG/1.1/DTD/svg11.dtd">
<svg width="200" height="200" viewBox="0 0 200 200" version="1.1" xmlns="http://www.w3.org/2000/svg" xmlns:xlink="http://www.w3.org/1999/xlink">
  <g transform="matrix(2 0 0 2 0 0)">
    <g id="Circle/Ellipse" transform="matrix(1.886792 0 0 3.125 -50 -76.5625)">
      <path fill="#f2f3f3" fill-rule="evenodd" d="M26.5 40.5 C26.5 31.67 38.38 24.5 53 24.5 C67.62 24.5 79.5 31.67 79.5 40.5 C79.5 49.33 67.62 56.5 53 56.5 C38.38 56.5 26.5 49.33 26.5 40.5 Z"/>
    </g>
    <g transform="matrix(1 0 0 1 29.625 7.5)">
      <path fill="#0c9a56" d="M11.62 17.65 C11.62 17.73 11.6 17.8 11.55 17.86 C11.51 17.92 11.43 17.97 11.31 18.01 C11.2 18.05 11.05 18.08 10.85 18.1 C10.66 18.12 10.42 18.12 10.13 18.12 C9.84 18.12 9.59 18.12 9.4 18.1 C9.2 18.08 9.05 18.05 8.94 18.01 C8.82 17.97 8.74 17.92 8.7 17.86 C8.65 17.8 8.62 17.73 8.62 17.65 L8.62 13.5 L4.5 13.5 L4.5 17.65 C4.5 17.73 4.48 17.8 4.43 17.86 C4.38 17.92 4.3 17.97 4.18 18.01 C4.07 18.05 3.92 18.08 3.73 18.1 C3.54 18.12 3.29 18.12 3 18.12 C2.71 18.12 2.46 18.12 2.27 18.1 C2.08 18.08 1.93 18.05 1.82 18.01 C1.7 17.97 1.62 17.92 1.57 17.86 C1.52 17.8 1.5 17.73 1.5 17.65 L1.5 7.1 C1.5 7.02 1.52 6.95 1.57 6.89 C1.62 6.83 1.7 6.78 1.82 6.74 C1.93 6.7 2.08 6.67 2.27 6.65 C2.46 6.63 2.71 6.62 3 6.62 C3.29 6.62 3.54 6.63 3.73 6.66 C3.92 6.68 4.07 6.71 4.18 6.75 C4.3 6.78 4.38 6.83 4.43 6.9 C4.48 6.96 4.5 7.03 4.5 7.11 L4.5 11.12 L8.62 11.12 L8.62 7.11 C8.62 7.03 8.65 6.96 8.7 6.9 C8.74 6.83 8.82 6.78 8.94 6.75 C9.05 6.71 9.2 6.68 9.4 6.66 C9.59 6.63 9.84 6.62 10.13 6.62 C10.42 6.62 10.66 6.63 10.85 6.65 C11.05 6.67 11.2 6.7 11.31 6.74 C11.43 6.78 11.51 6.83 11.55 6.89 C11.6 6.95 11.62 7.02 11.62 7.1 Z"/>
      <path fill="#0c9a56" d="M23.5 17.69 C23.5 17.8 23.46 17.89 23.38 17.95 C23.31 18.01 23.18 18.06 23.02 18.08 C22.85 18.11 22.6 18.12 22.28 18.12 C21.93 18.12 21.67 18.11 21.51 18.08 C21.36 18.06 21.24 18.01 21.18 17.95 C21.11 17.89 21.08 17.8 21.08 17.69 L21.08 16.86 C20.65 17.32 20.16 17.67 19.62 17.9 C19.07 18.13 18.46 18.25 17.79 18.25 C17.24 18.25 16.73 18.18 16.27 18.03 C15.81 17.89 15.41 17.67 15.07 17.38 C14.73 17.1 14.47 16.74 14.28 16.32 C14.09 15.89 14 15.4 14 14.83 C14 14.22 14.12 13.69 14.36 13.24 C14.59 12.78 14.95 12.41 15.42 12.12 C15.89 11.82 16.47 11.6 17.17 11.46 C17.87 11.32 18.68 11.25 19.61 11.25 L20.62 11.25 L20.62 10.64 C20.62 10.32 20.59 10.05 20.53 9.81 C20.46 9.57 20.35 9.37 20.2 9.21 C20.05 9.06 19.85 8.94 19.6 8.86 C19.35 8.79 19.04 8.75 18.67 8.75 C18.19 8.75 17.75 8.8 17.37 8.91 C16.99 9.01 16.65 9.12 16.36 9.25 C16.07 9.38 15.82 9.49 15.62 9.59 C15.43 9.7 15.27 9.75 15.14 9.75 C15.06 9.75 14.98 9.72 14.92 9.67 C14.85 9.62 14.8 9.54 14.76 9.44 C14.72 9.34 14.68 9.22 14.66 9.08 C14.64 8.93 14.62 8.77 14.62 8.6 C14.62 8.36 14.64 8.17 14.68 8.04 C14.72 7.9 14.79 7.78 14.9 7.67 C15.01 7.56 15.2 7.43 15.47 7.29 C15.74 7.15 16.06 7.02 16.42 6.91 C16.78 6.79 17.18 6.69 17.61 6.61 C18.04 6.54 18.48 6.5 18.94 6.5 C19.75 6.5 20.44 6.58 21.02 6.74 C21.59 6.9 22.06 7.15 22.43 7.48 C22.8 7.81 23.08 8.24 23.25 8.77 C23.41 9.29 23.5 9.92 23.5 10.64 Z M20.62 13.12 L19.51 13.12 C19.03 13.12 18.63 13.16 18.3 13.23 C17.96 13.3 17.69 13.4 17.48 13.54 C17.27 13.68 17.12 13.85 17.02 14.05 C16.92 14.25 16.87 14.47 16.87 14.73 C16.87 15.16 17.01 15.5 17.29 15.75 C17.56 16 17.95 16.12 18.44 16.12 C18.85 16.12 19.23 16.02 19.57 15.81 C19.92 15.6 20.27 15.3 20.62 14.89 Z"/>
      <path fill="#0c9a56" d="M41.19 17.6 C41.2 17.79 41.11 17.93 40.92 18.01 C40.72 18.09 40.37 18.12 39.87 18.12 C39.56 18.12 39.31 18.12 39.13 18.11 C38.94 18.11 38.8 18.09 38.7 18.05 C38.6 18.02 38.54 17.98 38.5 17.92 C38.47 17.86 38.45 17.78 38.44 17.69 L37.79 12.05 C37.77 11.84 37.75 11.62 37.73 11.37 C37.71 11.11 37.69 10.86 37.66 10.6 C37.64 10.34 37.63 10.08 37.61 9.83 C37.59 9.57 37.57 9.34 37.55 9.14 L37.56 8.85 C37.51 9.06 37.45 9.29 37.38 9.54 C37.32 9.79 37.24 10.05 37.17 10.31 C37.09 10.57 37.02 10.82 36.95 11.08 C36.88 11.33 36.81 11.56 36.75 11.77 L34.93 17.58 C34.9 17.68 34.85 17.76 34.79 17.83 C34.73 17.9 34.64 17.96 34.53 18 C34.42 18.04 34.27 18.08 34.1 18.1 C33.92 18.12 33.71 18.12 33.44 18.12 C33.2 18.12 33 18.12 32.83 18.1 C32.67 18.08 32.53 18.04 32.41 18 C32.3 17.96 32.21 17.9 32.15 17.83 C32.09 17.76 32.05 17.67 32.02 17.57 L30.24 11.77 C30.18 11.56 30.11 11.33 30.04 11.08 C29.96 10.83 29.89 10.58 29.82 10.32 C29.74 10.06 29.67 9.8 29.61 9.55 C29.54 9.29 29.48 9.06 29.44 8.85 L29.45 9.14 C29.43 9.34 29.42 9.57 29.4 9.83 C29.38 10.08 29.36 10.34 29.34 10.6 C29.31 10.86 29.29 11.11 29.26 11.37 C29.24 11.62 29.22 11.84 29.2 12.05 L28.56 17.62 C28.55 17.72 28.52 17.8 28.48 17.87 C28.44 17.94 28.36 17.99 28.25 18.03 C28.14 18.07 28 18.1 27.81 18.11 C27.62 18.12 27.37 18.12 27.06 18.12 C26.79 18.12 26.57 18.12 26.4 18.1 C26.24 18.09 26.11 18.06 26.02 18.01 C25.93 17.97 25.87 17.92 25.84 17.85 C25.81 17.78 25.8 17.7 25.81 17.6 L26.87 7.76 C26.9 7.42 27.01 7.17 27.2 7 C27.38 6.83 27.65 6.75 28.02 6.75 L29.53 6.75 C29.84 6.75 30.11 6.77 30.33 6.82 C30.55 6.87 30.74 6.95 30.91 7.07 C31.07 7.19 31.21 7.35 31.32 7.55 C31.43 7.76 31.53 8.01 31.62 8.32 L32.78 11.92 C32.85 12.16 32.92 12.4 32.99 12.66 C33.06 12.91 33.13 13.17 33.2 13.42 C33.27 13.68 33.34 13.92 33.39 14.16 C33.45 14.4 33.5 14.63 33.55 14.84 L33.56 14.84 C33.61 14.63 33.66 14.4 33.73 14.14 C33.79 13.89 33.85 13.64 33.92 13.38 C33.98 13.12 34.05 12.86 34.12 12.61 C34.2 12.36 34.27 12.13 34.34 11.91 L35.5 8.32 C35.58 8.03 35.66 7.79 35.76 7.59 C35.85 7.39 35.97 7.23 36.12 7.11 C36.27 6.99 36.45 6.9 36.67 6.84 C36.89 6.78 37.16 6.75 37.48 6.75 L38.96 6.75 C39.34 6.75 39.62 6.83 39.81 7 C39.99 7.17 40.1 7.42 40.13 7.76 Z"/>
    </g>
    <g transform="matrix(1 0 0 1 22.875 59.75)">
      <path fill="#0c9a56" d="M12 12.22 C12 13.15 11.9 13.98 11.7 14.73 C11.51 15.47 11.22 16.1 10.84 16.63 C10.46 17.15 9.99 17.55 9.42 17.83 C8.86 18.11 8.21 18.25 7.48 18.25 C7.18 18.25 6.91 18.22 6.65 18.16 C6.4 18.1 6.16 18.01 5.92 17.89 C5.69 17.77 5.45 17.62 5.22 17.44 C4.99 17.26 4.75 17.05 4.5 16.81 L4.5 21.74 C4.5 21.82 4.48 21.89 4.43 21.96 C4.38 22.02 4.3 22.07 4.18 22.12 C4.07 22.16 3.92 22.19 3.73 22.21 C3.54 22.24 3.29 22.25 3 22.25 C2.71 22.25 2.46 22.24 2.27 22.21 C2.08 22.19 1.93 22.16 1.82 22.12 C1.7 22.07 1.62 22.02 1.57 21.96 C1.52 21.89 1.5 21.82 1.5 21.74 L1.5 7.1 C1.5 7.02 1.52 6.95 1.56 6.89 C1.6 6.83 1.67 6.78 1.77 6.74 C1.87 6.7 2 6.67 2.16 6.65 C2.32 6.63 2.53 6.62 2.77 6.62 C3.01 6.62 3.21 6.63 3.37 6.66 C3.54 6.68 3.67 6.71 3.77 6.75 C3.87 6.79 3.94 6.84 3.98 6.9 C4.02 6.96 4.04 7.03 4.04 7.11 L4.04 8.39 C4.34 8.08 4.63 7.81 4.92 7.57 C5.22 7.33 5.51 7.13 5.81 6.97 C6.12 6.81 6.43 6.7 6.75 6.62 C7.07 6.54 7.41 6.5 7.78 6.5 C8.54 6.5 9.19 6.65 9.72 6.95 C10.26 7.25 10.69 7.66 11.03 8.18 C11.37 8.7 11.61 9.31 11.77 10 C11.92 10.7 12 11.44 12 12.22 Z M8.87 12.43 C8.87 11.98 8.84 11.56 8.78 11.15 C8.71 10.74 8.6 10.37 8.45 10.05 C8.29 9.73 8.09 9.48 7.83 9.29 C7.58 9.1 7.26 9 6.88 9 C6.69 9 6.5 9.03 6.32 9.09 C6.13 9.15 5.94 9.24 5.75 9.38 C5.55 9.51 5.35 9.68 5.15 9.89 C4.94 10.11 4.73 10.37 4.5 10.68 L4.5 14.12 C4.9 14.64 5.29 15.04 5.65 15.32 C6.01 15.61 6.4 15.75 6.79 15.75 C7.16 15.75 7.48 15.65 7.74 15.46 C8 15.26 8.22 15.01 8.39 14.69 C8.55 14.37 8.68 14.02 8.76 13.62 C8.84 13.22 8.87 12.82 8.87 12.43 Z"/>
      <path fill="#0c9a56" d="M25 12.27 C25 13.16 24.88 13.97 24.65 14.7 C24.41 15.43 24.05 16.06 23.58 16.59 C23.1 17.12 22.5 17.53 21.78 17.82 C21.05 18.11 20.21 18.25 19.25 18.25 C18.31 18.25 17.5 18.12 16.81 17.86 C16.12 17.61 15.55 17.23 15.09 16.74 C14.64 16.25 14.3 15.65 14.08 14.93 C13.86 14.22 13.75 13.4 13.75 12.48 C13.75 11.59 13.87 10.78 14.11 10.04 C14.35 9.31 14.71 8.68 15.19 8.15 C15.66 7.63 16.26 7.22 16.98 6.93 C17.7 6.64 18.54 6.5 19.5 6.5 C20.45 6.5 21.26 6.63 21.95 6.88 C22.64 7.13 23.21 7.5 23.66 8 C24.12 8.49 24.45 9.09 24.67 9.81 C24.89 10.52 25 11.34 25 12.27 Z M22 12.4 C22 11.89 21.96 11.42 21.87 10.99 C21.79 10.57 21.65 10.2 21.45 9.88 C21.25 9.56 20.98 9.32 20.65 9.14 C20.32 8.96 19.9 8.87 19.4 8.87 C18.95 8.87 18.56 8.95 18.22 9.11 C17.89 9.27 17.61 9.5 17.4 9.8 C17.18 10.11 17.02 10.48 16.91 10.9 C16.8 11.33 16.75 11.82 16.75 12.36 C16.75 12.87 16.79 13.34 16.88 13.77 C16.97 14.19 17.11 14.57 17.31 14.88 C17.5 15.2 17.77 15.44 18.1 15.62 C18.44 15.79 18.86 15.87 19.35 15.87 C19.81 15.87 20.2 15.8 20.54 15.64 C20.87 15.48 21.15 15.25 21.36 14.95 C21.58 14.65 21.74 14.29 21.84 13.86 C21.95 13.43 22 12.95 22 12.4 Z"/>
      <path fill="#0c9a56" d="M37.12 17.77 C37.12 17.83 37.1 17.88 37.06 17.93 C37.02 17.97 36.94 18.01 36.84 18.04 C36.73 18.06 36.58 18.09 36.39 18.1 C36.2 18.12 35.97 18.12 35.68 18.12 C35.36 18.12 35.1 18.12 34.89 18.1 C34.68 18.09 34.51 18.06 34.39 18.04 C34.27 18.01 34.18 17.97 34.13 17.91 C34.07 17.86 34.03 17.79 34 17.71 L33.01 15.17 C32.89 14.83 32.76 14.55 32.62 14.32 C32.49 14.09 32.33 13.9 32.17 13.76 C32 13.62 31.81 13.52 31.59 13.46 C31.38 13.4 31.13 13.37 30.86 13.37 L30.25 13.37 L30.25 17.71 C30.25 17.76 30.22 17.82 30.17 17.87 C30.11 17.92 30.02 17.97 29.91 18.01 C29.79 18.05 29.63 18.08 29.44 18.1 C29.25 18.12 29.02 18.12 28.75 18.12 C28.47 18.12 28.24 18.12 28.05 18.1 C27.86 18.08 27.7 18.05 27.58 18.01 C27.46 17.97 27.38 17.92 27.33 17.87 C27.28 17.82 27.25 17.77 27.25 17.71 L27.25 7.03 C27.25 6.97 27.28 6.92 27.33 6.87 C27.38 6.82 27.46 6.77 27.58 6.74 C27.7 6.7 27.86 6.67 28.05 6.65 C28.24 6.63 28.47 6.62 28.75 6.62 C29.02 6.62 29.25 6.63 29.44 6.65 C29.63 6.67 29.79 6.7 29.91 6.74 C30.02 6.77 30.11 6.82 30.17 6.87 C30.22 6.92 30.25 6.97 30.25 7.03 L30.25 11.12 L30.85 11.12 C31.09 11.12 31.31 11.1 31.5 11.04 C31.7 10.98 31.87 10.88 32.04 10.74 C32.2 10.6 32.34 10.42 32.48 10.19 C32.62 9.96 32.75 9.68 32.87 9.34 L33.75 7.07 C33.77 6.99 33.81 6.93 33.87 6.87 C33.92 6.81 34 6.76 34.11 6.73 C34.23 6.69 34.38 6.66 34.58 6.65 C34.77 6.63 35.03 6.62 35.35 6.62 C35.64 6.62 35.87 6.63 36.05 6.65 C36.23 6.66 36.37 6.69 36.48 6.72 C36.58 6.75 36.65 6.79 36.69 6.83 C36.73 6.87 36.75 6.93 36.75 6.99 C36.75 7.07 36.73 7.16 36.7 7.27 C36.67 7.38 36.62 7.53 36.54 7.72 L35.71 9.73 C35.54 10.13 35.37 10.47 35.19 10.75 C35 11.03 34.82 11.26 34.62 11.44 C34.43 11.62 34.24 11.76 34.04 11.87 C33.85 11.98 33.66 12.07 33.48 12.13 L33.48 12.16 C33.73 12.26 33.96 12.37 34.17 12.49 C34.39 12.61 34.59 12.76 34.79 12.95 C34.98 13.14 35.17 13.38 35.35 13.66 C35.52 13.94 35.7 14.28 35.87 14.67 L36.91 17.04 C36.96 17.15 37 17.24 37.02 17.31 C37.05 17.39 37.07 17.46 37.09 17.51 C37.11 17.57 37.12 17.62 37.12 17.66 C37.12 17.7 37.12 17.74 37.12 17.77 Z"/>
      <path fill="#0c9a56" d="M42.12 17.65 C42.12 17.73 42.1 17.8 42.05 17.86 C42.01 17.92 41.92 17.97 41.81 18.01 C41.69 18.05 41.54 18.08 41.35 18.1 C41.16 18.12 40.92 18.12 40.62 18.12 C40.33 18.12 40.09 18.12 39.9 18.1 C39.71 18.08 39.56 18.05 39.44 18.01 C39.33 17.97 39.24 17.92 39.2 17.86 C39.15 17.8 39.12 17.73 39.12 17.65 L39.12 7.12 C39.12 7.04 39.15 6.97 39.2 6.91 C39.24 6.86 39.33 6.8 39.44 6.76 C39.56 6.72 39.71 6.68 39.9 6.66 C40.09 6.64 40.33 6.62 40.62 6.62 C40.92 6.62 41.16 6.64 41.35 6.66 C41.54 6.68 41.69 6.72 41.81 6.76 C41.92 6.8 42.01 6.86 42.05 6.91 C42.1 6.97 42.12 7.04 42.12 7.12 Z M42.25 3.54 C42.25 4.14 42.13 4.55 41.89 4.78 C41.65 5.01 41.2 5.12 40.55 5.12 C39.89 5.12 39.45 5.01 39.22 4.79 C38.99 4.57 38.87 4.17 38.87 3.6 C38.87 3 38.99 2.58 39.23 2.35 C39.47 2.12 39.91 2 40.57 2 C41.23 2 41.67 2.11 41.9 2.34 C42.13 2.56 42.25 2.96 42.25 3.54 Z"/>
      <path fill="#0c9a56" d="M54.62 14.49 C54.62 15.09 54.51 15.62 54.29 16.07 C54.07 16.52 53.73 16.9 53.27 17.2 C52.82 17.51 52.25 17.73 51.57 17.89 C50.89 18.05 50.09 18.12 49.17 18.12 C48.86 18.12 48.58 18.12 48.32 18.12 C48.05 18.12 47.8 18.11 47.55 18.1 C47.31 18.09 47.06 18.08 46.81 18.07 C46.57 18.05 46.3 18.03 46.02 18 C45.65 17.96 45.39 17.86 45.23 17.67 C45.08 17.48 45 17.2 45 16.82 L45 7.78 C45 7.42 45.07 7.15 45.22 6.96 C45.37 6.78 45.6 6.67 45.9 6.63 C46.1 6.61 46.32 6.6 46.58 6.58 C46.83 6.57 47.11 6.55 47.4 6.54 C47.7 6.53 48.01 6.52 48.33 6.51 C48.65 6.5 48.97 6.5 49.3 6.5 C50.13 6.5 50.86 6.56 51.46 6.68 C52.06 6.79 52.56 6.97 52.96 7.21 C53.35 7.45 53.65 7.75 53.84 8.09 C54.03 8.44 54.12 8.85 54.12 9.32 C54.12 9.96 53.95 10.49 53.62 10.91 C53.28 11.34 52.79 11.62 52.16 11.77 C52.95 11.91 53.56 12.22 53.99 12.68 C54.41 13.15 54.62 13.75 54.62 14.49 Z M51.37 9.84 C51.37 9.63 51.34 9.44 51.26 9.27 C51.19 9.1 51.07 8.96 50.91 8.85 C50.74 8.73 50.52 8.65 50.25 8.59 C49.98 8.53 49.66 8.5 49.28 8.5 C48.98 8.5 48.7 8.51 48.44 8.52 C48.17 8.54 47.95 8.56 47.75 8.58 L47.75 11.25 L49.33 11.25 C50 11.25 50.5 11.13 50.85 10.89 C51.2 10.65 51.37 10.3 51.37 9.84 Z M51.75 14.5 C51.75 14.25 51.71 14.03 51.62 13.84 C51.54 13.65 51.4 13.49 51.21 13.37 C51.01 13.24 50.76 13.15 50.44 13.09 C50.13 13.03 49.75 13 49.31 13 L47.75 13 L47.75 16.03 C47.88 16.05 48.01 16.06 48.15 16.07 C48.29 16.08 48.43 16.09 48.57 16.1 C48.72 16.11 48.86 16.12 49 16.12 C49.14 16.12 49.26 16.12 49.37 16.12 C49.79 16.12 50.16 16.09 50.46 16.01 C50.76 15.94 51.01 15.83 51.2 15.69 C51.39 15.55 51.53 15.37 51.62 15.17 C51.71 14.97 51.75 14.75 51.75 14.5 Z"/>
    </g>
    <path transform="matrix(0.596358 0 0 0.5 29.522276 24.6875)" fill="#0c9a56" d="M19.32 65.45 C18.85 65.45 18.47 65.3 18.17 64.99 C17.86 64.69 17.71 64.3 17.71 63.84 L17.71 24.64 L6.09 33.6 C5.72 33.88 5.32 34 4.9 33.95 C4.48 33.9 4.13 33.69 3.85 33.32 L2.03 31.01 C1.75 30.59 1.65 30.17 1.71 29.75 C1.78 29.33 2.01 28.98 2.38 28.7 L17.64 16.94 C17.97 16.71 18.27 16.57 18.55 16.52 C18.83 16.47 19.13 16.45 19.46 16.45 L23.03 16.45 C23.5 16.45 23.88 16.6 24.18 16.9 C24.49 17.21 24.64 17.59 24.64 18.06 L24.64 63.84 C24.64 64.3 24.49 64.69 24.18 64.99 C23.88 65.3 23.5 65.45 23.03 65.45 Z M52.19 66.15 C48.97 66.15 46.25 65.65 44.03 64.64 C41.82 63.64 40.01 62.25 38.61 60.48 C37.21 58.71 36.2 56.68 35.57 54.39 C34.94 52.1 34.57 49.68 34.48 47.11 C34.43 45.85 34.4 44.52 34.37 43.12 C34.35 41.72 34.35 40.29 34.37 38.85 C34.4 37.4 34.43 36.03 34.48 34.72 C34.53 32.16 34.89 29.73 35.57 27.44 C36.24 25.16 37.28 23.14 38.68 21.39 C40.08 19.64 41.89 18.26 44.1 17.26 C46.32 16.25 49.02 15.75 52.19 15.75 C55.41 15.75 58.13 16.25 60.35 17.26 C62.56 18.26 64.37 19.64 65.77 21.39 C67.17 23.14 68.21 25.16 68.88 27.44 C69.56 29.73 69.92 32.16 69.97 34.72 C70.02 36.03 70.05 37.4 70.08 38.85 C70.1 40.29 70.1 41.72 70.08 43.12 C70.05 44.52 70.02 45.85 69.97 47.11 C69.92 49.68 69.56 52.1 68.88 54.39 C68.21 56.68 67.18 58.71 65.81 60.48 C64.43 62.25 62.63 63.64 60.41 64.64 C58.2 65.65 55.45 66.15 52.19 66.15 Z M52.19 60.13 C55.83 60.13 58.53 58.94 60.27 56.56 C62.02 54.18 62.92 50.91 62.97 46.76 C63.06 45.41 63.11 44.09 63.11 42.81 C63.11 41.52 63.11 40.24 63.11 38.95 C63.11 37.67 63.06 36.4 62.97 35.14 C62.92 31.08 62.02 27.82 60.27 25.37 C58.53 22.92 55.83 21.7 52.19 21.7 C48.6 21.7 45.92 22.92 44.18 25.37 C42.43 27.82 41.51 31.08 41.41 35.14 C41.41 36.4 41.4 37.67 41.38 38.95 C41.35 40.24 41.35 41.52 41.38 42.81 C41.4 44.09 41.41 45.41 41.41 46.76 C41.51 50.91 42.44 54.18 44.21 56.56 C45.98 58.94 48.64 60.13 52.19 60.13 Z"/>
  </g>
</svg>
