<?xml version="1.0" encoding="UTF-8"?>
<svg xmlns="http://www.w3.org/2000/svg" xmlns:xlink="http://www.w3.org/1999/xlink" width="29px" height="29px" viewBox="0 0 29 29" version="1.1">
<defs>
<filter id="alpha" filterUnits="objectBoundingBox" x="0%" y="0%" width="100%" height="100%">
  <feColorMatrix type="matrix" in="SourceGraphic" values="0 0 0 0 1 0 0 0 0 1 0 0 0 0 1 0 0 0 1 0"/>
</filter>
<mask id="mask0">
  <g filter="url(#alpha)">
<rect x="0" y="0" width="29" height="29" style="fill:rgb(0%,0%,0%);fill-opacity:0.4;stroke:none;"/>
  </g>
</mask>
<clipPath id="clip1">
  <rect x="0" y="0" width="29" height="29"/>
</clipPath>
<g id="surface5" clip-path="url(#clip1)">
<path style=" stroke:none;fill-rule:nonzero;fill:rgb(0%,0%,0%);fill-opacity:1;" d="M 29 7.25 L 29 27.648438 C 29 28.394531 28.390625 29 27.640625 29 L 12.6875 29 L 12.6875 23.835938 C 13.679688 23.410156 14.421875 22.550781 14.699219 21.507812 C 14.71875 21.425781 14.738281 21.351562 14.753906 21.285156 C 14.792969 21.136719 14.832031 20.976562 14.863281 20.886719 C 14.925781 20.816406 15.039062 20.703125 15.140625 20.601562 L 15.304688 20.433594 C 16.171875 19.546875 16.511719 18.269531 16.199219 17.070312 C 16.179688 16.992188 16.160156 16.917969 16.140625 16.847656 C 16.101562 16.699219 16.058594 16.535156 16.039062 16.441406 C 16.058594 16.347656 16.105469 16.183594 16.144531 16.03125 C 16.160156 15.964844 16.179688 15.894531 16.199219 15.816406 C 16.511719 14.617188 16.175781 13.34375 15.316406 12.457031 L 15.160156 12.296875 C 15.054688 12.191406 14.9375 12.074219 14.871094 12.003906 C 14.84375 11.910156 14.804688 11.75 14.765625 11.601562 C 14.746094 11.535156 14.726562 11.460938 14.707031 11.378906 C 14.390625 10.179688 13.460938 9.238281 12.265625 8.90625 L 12.257812 8.90625 L 12.046875 8.847656 C 11.90625 8.8125 11.753906 8.769531 11.664062 8.742188 C 11.59375 8.675781 11.480469 8.5625 11.378906 8.457031 C 11.332031 8.40625 11.28125 8.355469 11.226562 8.300781 C 10.355469 7.402344 9.066406 7.050781 7.859375 7.375 L 7.855469 7.375 L 7.640625 7.433594 C 7.507812 7.46875 7.359375 7.511719 7.261719 7.535156 L 7.261719 1.351562 C 7.265625 0.609375 7.867188 0.00390625 8.609375 0 L 21.75 0 L 21.75 6.34375 C 21.75 6.84375 22.15625 7.25 22.65625 7.25 Z M 29 7.25 "/>
</g>
</defs>
<g id="surface1">
<use xlink:href="#surface5" mask="url(#mask0)"/>
<path style=" stroke:none;fill-rule:nonzero;fill:rgb(0%,0%,0%);fill-opacity:1;" d="M 28.601562 5.945312 L 23.058594 0.398438 C 22.804688 0.140625 22.457031 0 22.09375 0 L 21.75 0 L 21.75 6.34375 C 21.75 6.84375 22.15625 7.25 22.65625 7.25 L 29 7.25 L 29 6.90625 C 29 6.546875 28.855469 6.199219 28.601562 5.945312 Z M 14.445312 15.355469 C 14.597656 14.773438 14.433594 14.152344 14.015625 13.722656 C 13.171875 12.867188 13.253906 13.011719 12.945312 11.835938 C 12.792969 11.261719 12.347656 10.808594 11.773438 10.648438 C 10.625 10.335938 10.761719 10.417969 9.921875 9.558594 C 9.507812 9.132812 8.894531 8.964844 8.320312 9.117188 C 7.167969 9.433594 7.332031 9.433594 6.179688 9.117188 C 5.609375 8.964844 4.996094 9.128906 4.578125 9.554688 C 3.734375 10.414062 3.871094 10.332031 2.726562 10.644531 C 2.152344 10.804688 1.703125 11.257812 1.554688 11.835938 C 1.246094 13.011719 1.328125 12.863281 0.488281 13.722656 C 0.0664062 14.152344 -0.0976562 14.773438 0.0585938 15.355469 C 0.367188 16.527344 0.363281 16.363281 0.0546875 17.53125 C -0.0976562 18.113281 0.0664062 18.730469 0.484375 19.160156 C 1.328125 20.015625 1.246094 19.875 1.554688 21.042969 C 1.703125 21.625 2.152344 22.078125 2.726562 22.238281 C 3.539062 22.460938 3.382812 22.40625 3.625 22.519531 L 3.625 29 L 7.25 27.1875 L 10.875 29 L 10.875 22.523438 C 11.117188 22.410156 10.960938 22.460938 11.773438 22.238281 C 12.347656 22.078125 12.796875 21.625 12.945312 21.046875 C 13.253906 19.871094 13.171875 20.019531 14.015625 19.160156 C 14.433594 18.730469 14.597656 18.113281 14.441406 17.53125 C 14.136719 16.359375 14.136719 16.527344 14.445312 15.355469 Z M 7.25 19.9375 C 5.246094 19.9375 3.625 18.316406 3.625 16.3125 C 3.625 14.308594 5.246094 12.6875 7.25 12.6875 C 9.253906 12.6875 10.875 14.308594 10.875 16.3125 C 10.875 18.316406 9.253906 19.9375 7.25 19.9375 Z M 7.25 19.9375 "/>
</g>
</svg>
