<?xml version="1.0" encoding="UTF-8"?>
<svg xmlns="http://www.w3.org/2000/svg" xmlns:xlink="http://www.w3.org/1999/xlink" width="64px" height="73px" viewBox="0 0 64 73" version="1.1">
<defs>
<filter id="alpha" filterUnits="objectBoundingBox" x="0%" y="0%" width="100%" height="100%">
  <feColorMatrix type="matrix" in="SourceGraphic" values="0 0 0 0 1 0 0 0 0 1 0 0 0 0 1 0 0 0 1 0"/>
</filter>
<mask id="mask0">
  <g filter="url(#alpha)">
<rect x="0" y="0" width="64" height="73" style="#0c9a56;;fill-opacity:0.4;stroke:none;"/>
  </g>
</mask>
<clipPath id="clip1">
  <rect x="0" y="0" width="64" height="73"/>
</clipPath>
<g id="surface5" clip-path="url(#clip1)">
<path style=" stroke:none;fill-rule:nonzero;fill:#0c9a56;;fill-opacity:1;" d="M 0 27.375 L 0 63.875 C 0 66.394531 2.046875 68.4375 4.570312 68.4375 L 59.429688 68.4375 C 61.953125 68.4375 64 66.394531 64 63.875 L 64 27.375 Z M 43.585938 48.648438 L 33.214844 58.828125 C 32.539062 59.484375 31.460938 59.484375 30.785156 58.828125 L 20.414062 48.648438 C 18.960938 47.230469 18.191406 45.261719 18.289062 43.238281 C 18.390625 41.214844 19.355469 39.332031 20.941406 38.070312 C 23.871094 35.6875 28.242188 36.113281 30.941406 38.753906 L 32 39.792969 L 33.058594 38.753906 C 35.742188 36.113281 40.113281 35.6875 43.058594 38.070312 C 44.640625 39.335938 45.601562 41.21875 45.703125 43.238281 C 45.804688 45.261719 45.035156 47.230469 43.585938 48.648438 Z M 43.585938 48.648438 "/>
</g>
</defs>
<g id="surface1">
<use xlink:href="#surface5" mask="url(#mask0)"/>
<path style=" stroke:none;fill-rule:nonzero;fill:#0c9a56;;fill-opacity:1;" d="M 43.058594 38.070312 C 40.113281 35.6875 35.742188 36.113281 33.058594 38.753906 L 32 39.792969 L 30.941406 38.753906 C 28.242188 36.113281 23.871094 35.6875 20.941406 38.070312 C 19.355469 39.332031 18.390625 41.214844 18.289062 43.238281 C 18.191406 45.261719 18.960938 47.230469 20.414062 48.648438 L 30.785156 58.828125 C 31.460938 59.484375 32.539062 59.484375 33.214844 58.828125 L 43.585938 48.648438 C 45.035156 47.230469 45.804688 45.261719 45.703125 43.238281 C 45.601562 41.21875 44.640625 39.335938 43.058594 38.070312 Z M 55.898438 7.683594 C 55.277344 5.820312 53.527344 4.558594 51.558594 4.5625 L 34.285156 4.5625 L 34.285156 22.8125 L 63.8125 22.8125 C 63.871094 22.742188 63.886719 22.710938 63.941406 22.640625 Z M 29.714844 4.5625 L 12.441406 4.5625 C 10.472656 4.558594 8.722656 5.820312 8.101562 7.683594 L 0.0585938 22.640625 C 0.113281 22.710938 0.128906 22.742188 0.1875 22.8125 L 29.714844 22.8125 Z M 29.714844 4.5625 "/>
</g>
</svg>
