<?xml version="1.0" encoding="UTF-8"?>
<svg xmlns="http://www.w3.org/2000/svg" xmlns:xlink="http://www.w3.org/1999/xlink" width="10px" height="16px" viewBox="0 0 10 16" version="1.1">
<defs>
<filter id="alpha" filterUnits="objectBoundingBox" x="0%" y="0%" width="100%" height="100%">
  <feColorMatrix type="matrix" in="SourceGraphic" values="0 0 0 0 1 0 0 0 0 1 0 0 0 0 1 0 0 0 1 0"/>
</filter>
<mask id="mask0">
  <g filter="url(#alpha)">
<rect x="0" y="0" width="10" height="16" style="fill:#0c9a56;fill-opacity:0.4;stroke:none;"/>
  </g>
</mask>
<clipPath id="clip1">
  <rect x="0" y="0" width="10" height="16"/>
</clipPath>
<g id="surface5" clip-path="url(#clip1)">
<path style=" stroke:none;fill-rule:nonzero;fill:#0c9a56;fill-opacity:1;" d="M 5.898438 8 L 7.671875 9.777344 L 2.851562 14.589844 C 2.558594 14.882812 2.082031 14.882812 1.789062 14.589844 L 1.082031 13.882812 C 0.789062 13.589844 0.789062 13.117188 1.082031 12.824219 Z M 5.898438 8 "/>
</g>
</defs>
<g id="surface1">
<use xlink:href="#surface5" mask="url(#mask0)"/>
<path style=" stroke:none;fill-rule:nonzero;fill:#0c9a56;fill-opacity:1;" d="M 2.851562 1.40625 L 8.925781 7.46875 C 9.214844 7.761719 9.214844 8.234375 8.925781 8.527344 L 7.675781 9.777344 L 1.082031 3.171875 C 0.789062 2.882812 0.789062 2.410156 1.082031 2.117188 L 1.789062 1.410156 C 1.929688 1.265625 2.121094 1.1875 2.320312 1.1875 C 2.519531 1.1875 2.710938 1.265625 2.851562 1.40625 Z M 2.851562 1.40625 "/>
</g>
</svg>
