<?xml version="1.0" encoding="UTF-8"?>
<svg xmlns="http://www.w3.org/2000/svg" xmlns:xlink="http://www.w3.org/1999/xlink" width="16px" height="16px" viewBox="0 0 16 16" version="1.1">
<defs>
<filter id="alpha" filterUnits="objectBoundingBox" x="0%" y="0%" width="100%" height="100%">
  <feColorMatrix type="matrix" in="SourceGraphic" values="0 0 0 0 1 0 0 0 0 1 0 0 0 0 1 0 0 0 1 0"/>
</filter>
<mask id="mask0">
  <g filter="url(#alpha)">
<rect x="0" y="0" width="16" height="16" style="fill:rgb(0%,0%,0%);fill-opacity:0.4;stroke:none;"/>
  </g>
</mask>
<clipPath id="clip1">
  <rect x="0" y="0" width="16" height="16"/>
</clipPath>
<g id="surface5" clip-path="url(#clip1)">
<path style=" stroke:none;fill-rule:nonzero;fill:rgb(0%,0%,0%);fill-opacity:1;" d="M 0 6.5 C 0 4.015625 3.582031 2 8 2 C 12.417969 2 16 4.015625 16 6.5 C 16 8.984375 12.417969 11 8 11 C 3.582031 11 0 8.984375 0 6.5 Z M 0 6.5 "/>
</g>
</defs>
<g id="surface1">
<use xlink:href="#surface5" mask="url(#mask0)"/>
<path style=" stroke:none;fill-rule:nonzero;fill:rgb(0%,0%,0%);fill-opacity:1;" d="M 0 10 C 0 10.867188 0.5625 11.667969 1.5 12.324219 L 1.5 10.3125 C 0.910156 9.9375 0.394531 9.519531 0 9.050781 Z M 2.5 12.890625 C 3.347656 13.292969 4.363281 13.605469 5.5 13.789062 L 5.5 11.78125 C 4.394531 11.59375 3.382812 11.285156 2.5 10.875 Z M 14.5 10.3125 L 14.5 12.324219 C 15.4375 11.667969 16 10.867188 16 10 L 16 9.050781 C 15.605469 9.519531 15.089844 9.9375 14.5 10.3125 Z M 10.5 13.789062 C 11.636719 13.601562 12.652344 13.292969 13.5 12.890625 L 13.5 10.875 C 12.617188 11.285156 11.605469 11.59375 10.5 11.78125 Z M 6.5 11.914062 L 6.5 13.914062 C 6.988281 13.960938 7.484375 14 8 14 C 8.515625 14 9.011719 13.960938 9.5 13.914062 L 9.5 11.914062 C 9 11.96875 8.5 11.996094 8 12 C 7.5 11.996094 7 11.96875 6.5 11.914062 Z M 6.5 11.914062 "/>
</g>
</svg>
