<?xml version="1.0" encoding="UTF-8"?>
<svg xmlns="http://www.w3.org/2000/svg" xmlns:xlink="http://www.w3.org/1999/xlink" width="16px" height="14px" viewBox="0 0 15 14" version="1.1">
<defs>
<filter id="alpha" filterUnits="objectBoundingBox" x="0%" y="0%" width="100%" height="100%">
  <feColorMatrix type="matrix" in="SourceGraphic" values="0 0 0 0 1 0 0 0 0 1 0 0 0 0 1 0 0 0 1 0"/>
</filter>
<mask id="mask0">
  <g filter="url(#alpha)">
<rect x="0" y="0" width="15" height="14" style="fill:rgb(0%,0%,0%);fill-opacity:0.4;stroke:none;"/>
  </g>
</mask>
<clipPath id="clip1">
  <rect x="0" y="0" width="15" height="14"/>
</clipPath>
<g id="surface5" clip-path="url(#clip1)">
<path style=" stroke:none;fill-rule:nonzero;fill:rgb(0%,0%,0%);fill-opacity:1;" d="M 0 11.8125 C 0 12.539062 0.558594 13.125 1.25 13.125 L 13.75 13.125 C 14.441406 13.125 15 12.539062 15 11.8125 L 15 7 L 0 7 Z M 5 9.953125 C 5 9.773438 5.140625 9.625 5.3125 9.625 L 8.855469 9.625 C 9.027344 9.625 9.167969 9.773438 9.167969 9.953125 L 9.167969 11.046875 C 9.167969 11.226562 9.027344 11.375 8.855469 11.375 L 5.3125 11.375 C 5.140625 11.375 5 11.226562 5 11.046875 Z M 1.667969 9.953125 C 1.667969 9.773438 1.804688 9.625 1.980469 9.625 L 3.855469 9.625 C 4.027344 9.625 4.167969 9.773438 4.167969 9.953125 L 4.167969 11.046875 C 4.167969 11.226562 4.027344 11.375 3.855469 11.375 L 1.980469 11.375 C 1.804688 11.375 1.667969 11.226562 1.667969 11.046875 Z M 13.75 0.875 L 1.25 0.875 C 0.558594 0.875 0 1.460938 0 2.1875 L 0 3.5 L 15 3.5 L 15 2.1875 C 15 1.460938 14.441406 0.875 13.75 0.875 Z M 13.75 0.875 "/>
</g>
</defs>
<g id="surface1">
<use xlink:href="#surface5" mask="url(#mask0)"/>
<path style=" stroke:none;fill-rule:nonzero;fill:rgb(0%,0%,0%);fill-opacity:1;" d="M 15 7 L 0 7 L 0 3.5 L 15 3.5 Z M 15 7 "/>
</g>
</svg>
