<?xml version="1.0" encoding="UTF-8"?>
<svg xmlns="http://www.w3.org/2000/svg" xmlns:xlink="http://www.w3.org/1999/xlink" width="16px" height="16px" viewBox="0 0 16 16" version="1.1">
<defs>
<filter id="alpha" filterUnits="objectBoundingBox" x="0%" y="0%" width="100%" height="100%">
  <feColorMatrix type="matrix" in="SourceGraphic" values="0 0 0 0 1 0 0 0 0 1 0 0 0 0 1 0 0 0 1 0"/>
</filter>
<mask id="mask0">
  <g filter="url(#alpha)">
<rect x="0" y="0" width="16" height="16" style="fill:rgb(0%,0%,0%);fill-opacity:0.4;stroke:none;"/>
  </g>
</mask>
<clipPath id="clip1">
  <rect x="0" y="0" width="16" height="16"/>
</clipPath>
<g id="surface5" clip-path="url(#clip1)">
<path style=" stroke:none;fill-rule:nonzero;fill:rgb(0%,0%,0%);fill-opacity:1;" d="M 8.015625 11 L 7.984375 11 C 7.042969 11 6.097656 10.269531 5.40625 9.734375 C 5.292969 9.648438 0.773438 6.335938 0 5.730469 L 0 12.5 C 0 13.328125 0.671875 14 1.5 14 L 14.5 14 C 15.328125 14 16 13.328125 16 12.5 L 16 5.730469 C 15.234375 6.328125 10.707031 9.648438 10.59375 9.734375 C 9.902344 10.269531 8.957031 11 8.015625 11 Z M 14.5 2 L 1.5 2 C 0.671875 2 0 2.671875 0 3.5 L 0 4.09375 C 0 4.324219 0.105469 4.542969 0.289062 4.683594 C 1.242188 5.429688 1.558594 5.695312 5.707031 8.707031 C 6.230469 9.085938 7.273438 10.011719 8 10 C 8.726562 10.011719 9.769531 9.085938 10.292969 8.707031 C 14.441406 5.695312 14.757812 5.433594 15.710938 4.683594 C 15.894531 4.542969 16 4.324219 16 4.09375 L 16 3.5 C 16 2.671875 15.328125 2 14.5 2 Z M 14.5 2 "/>
</g>
</defs>
<g id="surface1">
<use xlink:href="#surface5" mask="url(#mask0)"/>
<path style=" stroke:none;fill-rule:nonzero;fill:rgb(0%,0%,0%);fill-opacity:1;" d="M 16 4.09375 L 16 5.730469 C 15.234375 6.328125 10.707031 9.648438 10.59375 9.734375 C 9.902344 10.269531 8.957031 11 8.015625 11 L 7.984375 11 C 7.042969 11 6.097656 10.269531 5.40625 9.734375 C 5.292969 9.648438 0.773438 6.335938 0 5.730469 L 0 4.09375 C 0 4.324219 0.105469 4.542969 0.289062 4.683594 C 1.242188 5.429688 1.558594 5.695312 5.707031 8.707031 C 6.226562 9.085938 7.261719 10 7.984375 10 L 8.015625 10 C 8.738281 10 9.773438 9.085938 10.292969 8.707031 C 14.441406 5.695312 14.757812 5.433594 15.710938 4.683594 C 15.894531 4.542969 16 4.324219 16 4.09375 Z M 16 4.09375 "/>
</g>
</svg>
