<?xml version="1.0" encoding="UTF-8"?>
<svg style="width:32px; " xmlns="http://www.w3.org/2000/svg" xmlns:xlink="http://www.w3.org/1999/xlink" width="32px" height="32px" viewBox="0 0 32 28" version="1.1">
<defs>
<filter id="alpha" filterUnits="objectBoundingBox" x="0%" y="0%" width="100%" height="100%">
  <feColorMatrix type="matrix" in="SourceGraphic" values="0 0 0 0 1 0 0 0 0 1 0 0 0 0 1 0 0 0 1 0"/>
</filter>
<mask id="mask0">
  <g filter="url(#alpha)">
<rect x="0" y="0" width="32" height="28" style="fill:#393E46;fill-opacity:0.4;stroke:none;"/>
  </g>
</mask>
<clipPath id="clip1">
  <rect x="0" y="0" width="32" height="28"/>
</clipPath>
<g id="surface5" clip-path="url(#clip1)">
<path style=" stroke:none;fill-rule:nonzero;fill:#393E46;fill-opacity:1;" d="M 31.808594 13.203125 C 28.792969 7.414062 22.828125 3.5 16 3.5 C 9.171875 3.5 3.203125 7.417969 0.191406 13.203125 C -0.0625 13.703125 -0.0625 14.296875 0.191406 14.796875 C 3.207031 20.585938 9.171875 24.5 16 24.5 C 22.828125 24.5 28.796875 20.582031 31.808594 14.796875 C 32.0625 14.296875 32.0625 13.703125 31.808594 13.203125 Z M 16.007812 21.875 L 16 21.875 C 11.585938 21.871094 8.007812 18.347656 8.007812 14 C 8.007812 9.65625 11.589844 6.132812 16.003906 6.132812 C 20.417969 6.132812 24 9.65625 24 14 C 24 18.347656 20.421875 21.871094 16.007812 21.875 Z M 16.007812 21.875 "/>
</g>
</defs>
<g id="surface1">
<use xlink:href="#surface5" mask="url(#mask0)"/>
<path style=" stroke:none;fill-rule:nonzero;fill:#393E46;fill-opacity:1;" d="M 21.148438 15.359375 C 20.652344 17.171875 19.214844 18.582031 17.375 19.066406 C 15.53125 19.546875 13.570312 19.023438 12.230469 17.691406 C 10.890625 16.359375 10.375 14.425781 10.878906 12.617188 C 11.933594 13.382812 13.402344 13.273438 14.332031 12.359375 C 15.261719 11.445312 15.371094 10 14.59375 8.957031 C 16.433594 8.441406 18.417969 8.941406 19.777344 10.269531 C 21.136719 11.597656 21.660156 13.542969 21.148438 15.359375 Z M 21.148438 15.359375 "/>
</g>
</svg>
