<?xml version="1.0" encoding="UTF-8"?>
<svg xmlns="http://www.w3.org/2000/svg" xmlns:xlink="http://www.w3.org/1999/xlink" width="32px" height="150px" viewBox="0 0 32 42" version="1.1">
<defs>
<filter id="alpha" filterUnits="objectBoundingBox" x="0%" y="0%" width="100%" height="100%">
  <feColorMatrix type="matrix" in="SourceGraphic" values="0 0 0 0 1 0 0 0 0 1 0 0 0 0 1 0 0 0 1 0"/>
</filter>
<mask id="mask0">
  <g filter="url(#alpha)">
<rect x="0" y="0" width="32" height="42" style="fill:#393E46;fill-opacity:0.4;stroke:none;"/>
  </g>
</mask>
<clipPath id="clip1">
  <rect x="0" y="0" width="32" height="42"/>
</clipPath>
<g id="surface5" clip-path="url(#clip1)">
<path style=" stroke:none;fill-rule:nonzero;fill:#393E46;fill-opacity:1;" d="M 32 10.5 L 22.667969 10.5 C 21.929688 10.5 21.332031 9.914062 21.332031 9.1875 L 21.332031 0 L 2 0 C 0.898438 -0.00390625 0.00390625 0.875 0 1.957031 L 0 40.03125 C -0.00390625 41.117188 0.886719 41.996094 1.988281 42 L 30 42 C 31.101562 42.003906 31.996094 41.125 32 40.042969 Z M 25.039062 28.496094 L 17 36.34375 C 16.445312 36.882812 15.554688 36.882812 15 36.34375 L 6.964844 28.496094 C 6.117188 27.667969 6.710938 26.25 7.902344 26.25 L 13.332031 26.25 L 13.332031 19.6875 C 13.332031 18.960938 13.929688 18.375 14.667969 18.375 L 17.332031 18.375 C 18.070312 18.375 18.667969 18.960938 18.667969 19.6875 L 18.667969 26.25 L 24.097656 26.25 C 25.289062 26.25 25.882812 27.667969 25.039062 28.496094 Z M 25.039062 28.496094 "/>
</g>
</defs>
<g id="surface1">
<use xlink:href="#surface5" mask="url(#mask0)"/>
<path style=" stroke:none;fill-rule:nonzero;fill:#393E46;fill-opacity:1;" d="M 31.417969 8.613281 L 23.257812 0.574219 C 22.882812 0.207031 22.371094 0 21.839844 0 L 21.332031 0 L 21.332031 9.1875 C 21.332031 9.914062 21.929688 10.5 22.667969 10.5 L 32 10.5 L 32 10 C 32 9.480469 31.789062 8.980469 31.417969 8.613281 Z M 24.097656 26.25 L 18.667969 26.25 L 18.667969 19.6875 C 18.667969 18.960938 18.070312 18.375 17.332031 18.375 L 14.667969 18.375 C 13.929688 18.375 13.332031 18.960938 13.332031 19.6875 L 13.332031 26.25 L 7.902344 26.25 C 6.710938 26.25 6.117188 27.667969 6.964844 28.496094 L 15 36.34375 C 15.554688 36.882812 16.445312 36.882812 17 36.34375 L 25.039062 28.496094 C 25.882812 27.667969 25.289062 26.25 24.097656 26.25 Z M 24.097656 26.25 "/>
</g>
</svg>
