<?xml version="1.0" encoding="UTF-8"?>
<svg xmlns="http://www.w3.org/2000/svg" xmlns:xlink="http://www.w3.org/1999/xlink" width="64px" height="57px" viewBox="0 0 64 57" version="1.1">
<g id="surface1">
<path style=" stroke:none;fill-rule:nonzero;fill:#0c9a56;fill-opacity:1;" d="M 5.289062 33.441406 L 25.367188 52.222656 C 26.199219 53.003906 27.300781 53.4375 28.445312 53.4375 C 29.589844 53.4375 30.6875 53.003906 31.523438 52.222656 L 31.8125 51.957031 C 29.6875 48.828125 28.445312 45.042969 28.445312 40.96875 C 28.445312 30.148438 37.199219 21.375 48 21.375 C 51.144531 21.375 54.109375 22.121094 56.746094 23.433594 C 56.84375 22.710938 56.890625 21.988281 56.890625 21.253906 L 56.890625 20.605469 C 56.890625 12.824219 51.277344 6.191406 43.621094 4.910156 C 38.554688 4.0625 33.398438 5.722656 29.777344 9.351562 L 28.445312 10.6875 L 27.109375 9.351562 C 23.488281 5.722656 18.332031 4.0625 13.265625 4.910156 C 5.609375 6.191406 0 12.824219 0 20.605469 L 0 21.253906 C 0 25.871094 1.910156 30.292969 5.289062 33.441406 Z M 64 40.96875 C 64 32.117188 56.832031 24.9375 48 24.9375 C 39.167969 24.9375 32 32.117188 32 40.96875 C 32 49.820312 39.167969 57 48 57 C 56.832031 57 64 49.820312 64 40.96875 Z M 55.476562 36.148438 C 56.167969 36.839844 56.167969 37.972656 55.476562 38.664062 L 47.476562 46.679688 C 46.789062 47.371094 45.65625 47.371094 44.964844 46.679688 L 40.523438 42.226562 C 39.832031 41.535156 39.832031 40.402344 40.523438 39.710938 C 41.210938 39.019531 42.34375 39.019531 43.035156 39.710938 L 46.222656 42.90625 L 52.964844 36.148438 C 53.65625 35.457031 54.789062 35.457031 55.476562 36.148438 Z M 55.476562 36.148438 "/>
</g>
</svg>
