<?xml version="1.0" encoding="UTF-8"?>
<svg xmlns="http://www.w3.org/2000/svg" xmlns:xlink="http://www.w3.org/1999/xlink" width="30px" height="24px" viewBox="0 0 30 24" version="1.1">
<defs>
<filter id="alpha" filterUnits="objectBoundingBox" x="0%" y="0%" width="100%" height="100%">
  <feColorMatrix type="matrix" in="SourceGraphic" values="0 0 0 0 1 0 0 0 0 1 0 0 0 0 1 0 0 0 1 0"/>
</filter>
<mask id="mask0">
  <g filter="url(#alpha)">
<rect x="0" y="0" width="30" height="24" style="fill:#0c9a56;fill-opacity:0.4;stroke:none;"/>
  </g>
</mask>
<clipPath id="clip1">
  <rect x="0" y="0" width="30" height="24"/>
</clipPath>
<g id="surface5" clip-path="url(#clip1)">
<path style=" stroke:none;fill-rule:nonzero;fill:#0c9a56;fill-opacity:1;" d="M 22.082031 4.5 C 18.984375 4.5 16.5625 6.4375 15 8.183594 C 13.4375 6.4375 11.015625 4.5 7.917969 4.5 C 3.554688 4.5 0 7.867188 0 12 C 0 16.132812 3.554688 19.5 7.917969 19.5 C 11.015625 19.5 13.4375 17.5625 15 15.816406 C 16.5625 17.5625 18.984375 19.5 22.082031 19.5 C 26.445312 19.5 30 16.132812 30 12 C 30 7.867188 26.445312 4.5 22.082031 4.5 Z M 7.917969 15 C 6.03125 15 4.5 13.65625 4.5 12 C 4.5 10.34375 6.03125 9 7.917969 9 C 9.707031 9 11.359375 10.691406 12.324219 12 C 11.367188 13.292969 9.703125 15 7.917969 15 Z M 22.082031 15 C 20.292969 15 18.640625 13.308594 17.675781 12 C 18.632812 10.707031 20.296875 9 22.082031 9 C 23.96875 9 25.5 10.34375 25.5 12 C 25.5 13.65625 23.96875 15 22.082031 15 Z M 22.082031 15 "/>
</g>
</defs>
<g id="surface1">
<use xlink:href="#surface5" mask="url(#mask0)"/>
</g>
</svg>
